<svg width="4552" height="2560" viewBox="0 0 4552 2560" fill="none" xmlns="http://www.w3.org/2000/svg">
<g clip-path="url(#clip0_2_46)" filter="url(#filter0_i_2_46)">
<path d="M4552 0H0V2560H4552V0Z" fill="#252525"/>
<g filter="url(#filter1_d_2_46)">
<path d="M1042.55 2845.19L1137.77 2820.75C1233.33 2795.98 1423.77 2747.11 1497.57 2583.23C1571.37 2419.35 1528.53 2140.45 1555.81 1930.43C1582.49 1719.82 1679.89 1578.67 1851.58 1510.53C2023.27 1442.4 2269.78 1449.14 2394.28 1335.54C2518.78 1221.93 2521.27 987.995 2584.33 813.465C2647.4 638.935 2769.84 522.631 2939.15 452.13C3107.86 381.038 3322.16 355.832 3459.78 255.244C3596.8 154.066 3657.74 -21.9026 3816.84 -101.194C3975.93 -180.486 4234.36 -161.919 4363.32 -153.563L4492.54 -144.279L5870.32 1222.18L5810.89 1282.11C5751.12 1342.37 5632.25 1462.23 5513.71 1581.74C5395.18 1701.26 5276.98 1820.44 5158.44 1939.96C5039.91 2059.47 4921.04 2179.33 4801.84 2299.52C4682.64 2419.71 4563.77 2539.56 4445.23 2659.08C4326.7 2778.59 4208.5 2897.77 4089.96 3017.29C3971.43 3136.81 3852.56 3256.66 3733.36 3376.85C3614.15 3497.04 3495.28 3616.89 3376.75 3736.41C3258.22 3855.93 3140.01 3975.11 3021.48 4094.62C2902.95 4214.14 2784.08 4333.99 2724.31 4394.26L2664.87 4454.18L1042.55 2845.19Z" fill="#19CCDE"/>
</g>
<g filter="url(#filter2_d_2_46)">
<path d="M-776 1903.99L-691.598 1954.39C-606.723 2004.8 -437.919 2105.6 -269.59 2042.6C-101.261 1979.59 66.5942 1752.78 234.923 1624.26C403.253 1494.89 572.056 1464.65 741.333 1538.57C910.611 1612.5 1079.41 1792.27 1247.74 1800.67C1416.07 1809.07 1583.93 1646.1 1752.26 1567.98C1920.59 1489.85 2089.39 1494.89 2258.67 1565.46C2427.94 1635.18 2596.75 1769.59 2765.08 1796.47C2933.41 1822.51 3101.26 1741.86 3269.59 1798.99C3437.92 1856.11 3606.72 2052.68 3691.6 2150.12L3776 2248.41V4188.9H3691.6C3606.72 4188.9 3437.92 4188.9 3269.59 4188.9C3101.26 4188.9 2933.41 4188.9 2765.08 4188.9C2596.75 4188.9 2427.94 4188.9 2258.67 4188.9C2089.39 4188.9 1920.59 4188.9 1752.26 4188.9C1583.93 4188.9 1416.07 4188.9 1247.74 4188.9C1079.41 4188.9 910.611 4188.9 741.333 4188.9C572.056 4188.9 403.253 4188.9 234.923 4188.9C66.5942 4188.9 -101.261 4188.9 -269.59 4188.9C-437.919 4188.9 -606.723 4188.9 -691.598 4188.9H-776V1903.99Z" fill="#19CCDE"/>
</g>
<path d="M1260.71 2566.46L1322.74 2509.12C1384.76 2451.12 1508.82 2336.45 1680.81 2270.39C1852.8 2204.33 2073.4 2187.54 2178.35 2054.44C2283.3 1921.33 2273.26 1672.57 2341.34 1501.25C2409.74 1330.27 2555.92 1237.72 2729.26 1173C2902.25 1107.94 3102.74 1071.05 3258.97 989.23C3415.55 907.748 3528.2 781.681 3631.81 645.894C3735.08 509.77 3828.97 364.932 3961.74 259.649C4094.84 154.702 4267.17 89.6456 4412.01 -3.56912C4556.51 -97.119 4673.86 -218.493 4732.54 -279.85L4791.21 -340.536L5384.56 252.805L5324.87 312.486C5264.86 372.502 5145.5 491.864 5026.47 610.891C4907.44 729.918 4788.75 848.609 4669.72 967.636C4550.7 1086.66 4431.34 1206.02 4311.64 1325.72C4191.94 1445.42 4072.58 1564.78 3953.55 1683.81C3834.53 1802.83 3715.83 1921.53 3596.81 2040.55C3477.78 2159.58 3358.42 2278.94 3238.72 2398.64C3119.02 2518.34 2999.66 2637.7 2880.64 2756.72C2761.61 2875.75 2642.92 2994.44 2523.89 3113.47C2404.86 3232.5 2285.5 3351.86 2225.49 3411.87L2165.81 3471.56L1260.71 2566.46Z" fill="#00B7E6"/>
<path d="M-431 1700.53L-265.998 1703.68C-100.068 1706.38 229.936 1712.67 559.014 1783.74C888.091 1854.81 1223.02 1929.43 1545.32 1972.66C1847.86 2013.24 2300.22 2095.97 2552.4 1676.81C2901.47 1096.62 3103.56 971.907 3432.64 1044.78C3761.72 1117.19 4182.58 1933.08 4511.65 1983.01C4840.73 2033.38 5170.74 2024.39 5501.67 2002.8C5832.6 1980.76 6162.6 1946.57 6491.68 1965.01C6820.76 1983.91 7148.91 2055.87 7477.99 2090.51C7807.06 2124.69 8137.07 2122 8303 2120.2L8468 2118.85V2915H8303C8137.07 2915 7807.06 2915 7477.99 2915C7148.91 2915 6820.76 2915 6491.68 2915C6162.6 2915 5832.6 2915 5501.67 2915C5170.74 2915 4840.73 2915 4511.65 2915C4182.58 2915 3854.42 2915 3525.35 2915C3196.27 2915 2866.27 2915 2535.33 2915C2204.4 2915 1874.4 2915 1545.32 2915C1216.24 2915 888.091 2915 559.014 2915C229.936 2915 -100.068 2915 -265.998 2915H-431L-431 1700.53Z" fill="#00B7E6"/>
<path d="M1617.46 3330.21L1636.24 3229.63C1655.7 3129.05 1693.26 2927.89 1816.98 2813.56C1940.37 2698.89 2149.57 2670.71 2262.56 2545.65C2375.22 2420.25 2392 2198.31 2485.22 2052.13C2578.77 1906.29 2748.41 1837.21 2866.43 1717.18C2984.12 1596.81 3050.52 1425.83 3148.09 1285.34C3246 1145.2 3375.42 1035.89 3547.07 968.156C3718.73 900.418 3931.95 874.918 4041.59 746.505C4150.9 617.757 4156.96 386.431 4221.01 212.428C4285.39 38.7603 4408.11 -77.2494 4469.8 -135.59L4531.16 -193.594L5315.57 590.823L5255.89 650.504C5195.88 710.52 5076.51 829.882 4957.49 948.909C4838.46 1067.94 4719.77 1186.63 4600.74 1305.65C4481.72 1424.68 4362.35 1544.04 4242.66 1663.74C4122.96 1783.44 4003.6 1902.8 3884.57 2021.83C3765.54 2140.85 3646.85 2259.54 3527.83 2378.57C3408.8 2497.6 3289.44 2616.96 3169.74 2736.66C3050.04 2856.35 2930.68 2975.72 2811.65 3094.74C2692.63 3213.77 2573.94 3332.46 2454.91 3451.49C2335.88 3570.51 2216.52 3689.88 2156.5 3749.89L2096.82 3809.57L1617.46 3330.21Z" fill="#009FE7"/>
<path d="M-60 2173.74L36.2498 2102.91C133.04 2032.66 325.54 1890.99 517.499 1899.12C709.458 1906.67 900.876 2063.43 1092.83 2052.98C1284.79 2041.95 1477.29 1864.28 1670.33 1818.42C1863.37 1773.13 2055.87 1860.22 2247.83 1858.48C2439.79 1856.15 2701.61 1856.19 2895.49 1684.7C3106.6 1497.97 3207.63 1709.26 3400.67 1799.26C3593.71 1889.25 3786.21 2051.82 3978.17 2035.56C4170.12 2018.72 4361.54 1823.64 4553.5 1728.42C4745.46 1633.78 4937.96 1639.59 5034.75 1642.49L5131 1645.4V3004H5034.75C4937.96 3004 4745.46 3004 4553.5 3004C4361.54 3004 4170.12 3004 3978.17 3004C3786.21 3004 3593.71 3004 3400.67 3004C3207.63 3004 3015.13 3004 2823.17 3004C2631.21 3004 2439.79 3004 2247.83 3004C2055.87 3004 1863.37 3004 1670.33 3004C1477.29 3004 1284.79 3004 1092.83 3004C900.876 3004 709.458 3004 517.499 3004C325.54 3004 133.04 3004 36.2498 3004H-60L-60 2173.74Z" fill="#009FE7"/>
<path d="M1797.39 3469.14L1829.24 3381.63C1861.1 3293.46 1924.82 3118.45 2023.06 2978.64C2121.3 2838.83 2254.74 2734.89 2375.78 2617.87C2497.16 2501.19 2606.46 2371.77 2757 2282.92C2907.2 2193.72 3098.3 2146.1 3255.88 2065.62C3413.45 1985.15 3537.51 1871.82 3627.71 1723.96C3717.57 1575.77 3773.24 1392.72 3872.82 1252.91C3972.41 1113.1 4115.23 1017.2 4242.64 906.553C4370.05 795.907 4482.04 670.511 4601.06 551.485C4720.09 432.458 4846.16 319.8 4909.52 263.136L4972.56 206.808L5472.04 706.287L5412.36 765.968C5352.34 825.984 5232.98 945.346 5113.95 1064.37C4994.92 1183.4 4876.23 1302.09 4757.21 1421.12C4638.18 1540.14 4518.82 1659.51 4399.12 1779.2C4279.42 1898.9 4160.06 2018.26 4041.03 2137.29C3922.01 2256.32 3803.32 2375.01 3684.29 2494.03C3565.26 2613.06 3445.9 2732.42 3326.2 2852.12C3206.51 2971.82 3087.14 3091.18 2968.12 3210.21C2849.09 3329.23 2730.4 3447.92 2611.37 3566.95C2492.35 3685.98 2372.98 3805.34 2312.97 3865.36L2253.29 3925.04L1797.39 3469.14Z" fill="#0084DF"/>
<path d="M-182 2338.78L-97.5983 2299.43C-12.7225 2259.61 156.081 2180.91 324.41 2151.52C492.739 2122.13 660.594 2142.99 828.923 2145.83C997.253 2149.15 1166.06 2134.93 1335.33 2178.54C1504.61 2221.68 1673.41 2323.13 1841.74 2377.65C2010.07 2432.17 2177.93 2439.76 2346.26 2398.99C2514.59 2357.74 2699.33 2300.71 2854 2232C3018.83 2158.78 3190.75 2243.96 3359.08 2255.82C3527.41 2267.67 3695.26 2258.19 3863.59 2258.19C4031.92 2258.19 4200.72 2267.67 4285.6 2272.41L4370 2277.15V2983.52H4285.6C4200.72 2983.52 4031.92 2983.52 3863.59 2983.52C3695.26 2983.52 3527.41 2983.52 3359.08 2983.52C3190.75 2983.52 3021.94 2983.52 2852.67 2983.52C2683.39 2983.52 2514.59 2983.52 2346.26 2983.52C2177.93 2983.52 2010.07 2983.52 1841.74 2983.52C1673.41 2983.52 1504.61 2983.52 1335.33 2983.52C1166.06 2983.52 997.253 2983.52 828.923 2983.52C660.594 2983.52 492.739 2983.52 324.41 2983.52C156.081 2983.52 -12.7225 2983.52 -97.5983 2983.52H-182L-182 2338.78Z" fill="#0084DF"/>
<path d="M2134.57 3800.32L2192.9 3739.28C2251.1 3677.46 2367.75 3555.38 2479.07 3428.65C2590.4 3301.93 2697.32 3171.46 2790.54 3026.63C2883.75 2881.79 2964.18 2723.49 3057.16 2577.07C3150.59 2431.11 3256.37 2298.17 3394.41 2198.16C3532.01 2097.7 3702.32 2030.63 3846.25 1936.5C3990.18 1842.38 4107.73 1721.21 4204.79 1578.87C4301.84 1436.53 4377.74 1273.7 4472.31 1130.22C4567.34 987.197 4681.5 863.978 4789.21 733.631C4896.92 603.284 4998.17 465.809 5049.13 396.737L5099.75 328L5760.85 989.1L5701.17 1048.78C5641.15 1108.8 5521.79 1228.16 5402.76 1347.19C5283.74 1466.21 5165.05 1584.9 5046.02 1703.93C4926.99 1822.96 4807.63 1942.32 4687.93 2062.02C4568.24 2181.71 4448.87 2301.08 4329.85 2420.1C4210.82 2539.13 4092.13 2657.82 3973.1 2776.85C3854.08 2895.87 3734.71 3015.24 3615.02 3134.93C3495.32 3254.63 3375.96 3373.99 3256.93 3493.02C3137.9 3612.05 3019.21 3730.74 2900.19 3849.76C2781.16 3968.79 2661.8 4088.15 2601.78 4148.17L2542.1 4207.85L2134.57 3800.32Z" fill="#0068D3"/>
<path d="M-776 2374.61L-691.598 2372.68C-606.723 2370.12 -437.919 2366.28 -269.59 2355.39C-101.261 2344.51 66.5942 2327.86 234.923 2291.36C403.253 2254.86 572.056 2199.79 741.333 2162C910.611 2124.86 1079.41 2105.65 1247.74 2132.55C1416.07 2158.8 1583.93 2231.8 1752.26 2267.02C1920.59 2302.24 2089.39 2299.68 2258.67 2267.66C2427.94 2235.65 2596.75 2174.17 2765.08 2139.59C2933.41 2105.65 3101.26 2099.25 3269.59 2083.24C3437.92 2067.23 3627 2072 3691.6 2028.81L3741 1997.5L3785 1976L3776 2950.94H3691.6C3606.72 2950.94 3437.92 2950.94 3269.59 2950.94C3101.26 2950.94 2933.41 2950.94 2765.08 2950.94C2596.75 2950.94 2427.94 2950.94 2258.67 2950.94C2089.39 2950.94 1920.59 2950.94 1752.26 2950.94C1583.93 2950.94 1416.07 2950.94 1247.74 2950.94C1079.41 2950.94 910.611 2950.94 741.333 2950.94C572.056 2950.94 403.253 2950.94 234.923 2950.94C66.5942 2950.94 -101.261 2950.94 -269.59 2950.94C-437.919 2950.94 -606.723 2950.94 -691.598 2950.94H-776V2374.61Z" fill="#0068D3"/>
<path d="M2429.69 4087.44L2463.73 4002.12C2497.33 3915.69 2565.41 3745.05 2671.23 3612.81C2777.05 3480.58 2922.16 3388.3 3033.42 3261.51C3144.67 3134.71 3222.08 2973.39 3354.99 2866.9C3487.89 2760.41 3674.07 2707.87 3786.88 2582.63C3899.69 2457.38 3937.58 2257.89 4005.33 2087.59C4072.31 1916.51 4168.36 1773.84 4344.77 1710.86C4521.96 1648.65 4778.06 1666.03 4943.71 1593.62C5109.35 1521.21 5184.53 1359.01 5247.62 1184.04C5310.71 1009.08 5363.25 822.898 5389.09 728.697L5415.36 635.609L6060.21 1280.46L6000.53 1340.14C5940.51 1400.15 5821.15 1519.52 5702.12 1638.54C5583.1 1757.57 5464.4 1876.26 5345.38 1995.29C5226.35 2114.32 5106.99 2233.68 4987.29 2353.37C4867.59 2473.07 4748.23 2592.43 4629.21 2711.46C4510.18 2830.49 4391.49 2949.18 4272.46 3068.21C4153.43 3187.23 4034.07 3306.59 3914.37 3426.29C3794.68 3545.99 3675.32 3665.35 3556.29 3784.38C3437.26 3903.4 3318.57 4022.1 3199.54 4141.12C3080.52 4260.15 2961.15 4379.51 2901.14 4439.53L2841.46 4499.21L2429.69 4087.44Z" fill="#0C49C2"/>
<path d="M0 2508.82L124.211 2472.57C249.119 2435.22 497.54 2362.72 745.264 2344.05C992.987 2325.37 1240.01 2362.72 1487.74 2351.74C1735.46 2340.75 1983.88 2281.43 2233 2300.11C2482.12 2318.78 2730.54 2413.25 2978.26 2404.46C3225.99 2395.67 3855.5 2232.5 4112.5 1888.5C4484.26 1785.07 4216.88 2095.81 4466 2176C4715.12 2257.29 4963.54 2457.19 5211.26 2523.09C5458.99 2589 5706.01 2527.49 5953.74 2448.4C6201.46 2369.31 6449.88 2274.84 6574.79 2226.51L6699 2179.28V3091H6574.79C6449.88 3091 6201.46 3091 5953.74 3091C5706.01 3091 5458.99 3091 5211.26 3091C4963.54 3091 4715.12 3091 4466 3091C4216.88 3091 3968.46 3091 3720.74 3091C3473.01 3091 3225.99 3091 2978.26 3091C2730.54 3091 2482.12 3091 2233 3091C1983.88 3091 1735.46 3091 1487.74 3091C1240.01 3091 992.987 3091 745.264 3091C497.54 3091 249.119 3091 124.211 3091H0L0 2508.82Z" fill="#0C49C2"/>
</g>
<defs>
<filter id="filter0_i_2_46" x="0" y="0" width="4552" height="2564" filterUnits="userSpaceOnUse" color-interpolation-filters="sRGB">
<feFlood flood-opacity="0" result="BackgroundImageFix"/>
<feBlend mode="normal" in="SourceGraphic" in2="BackgroundImageFix" result="shape"/>
<feColorMatrix in="SourceAlpha" type="matrix" values="0 0 0 0 0 0 0 0 0 0 0 0 0 0 0 0 0 0 127 0" result="hardAlpha"/>
<feOffset dy="4"/>
<feGaussianBlur stdDeviation="2"/>
<feComposite in2="hardAlpha" operator="arithmetic" k2="-1" k3="1"/>
<feColorMatrix type="matrix" values="0 0 0 0 0 0 0 0 0 0 0 0 0 0 0 0 0 0 0.25 0"/>
<feBlend mode="normal" in2="shape" result="effect1_innerShadow_2_46"/>
</filter>
<filter id="filter1_d_2_46" x="1032.55" y="-167.589" width="4847.77" height="4635.77" filterUnits="userSpaceOnUse" color-interpolation-filters="sRGB">
<feFlood flood-opacity="0" result="BackgroundImageFix"/>
<feColorMatrix in="SourceAlpha" type="matrix" values="0 0 0 0 0 0 0 0 0 0 0 0 0 0 0 0 0 0 127 0" result="hardAlpha"/>
<feOffset dy="4"/>
<feGaussianBlur stdDeviation="5"/>
<feComposite in2="hardAlpha" operator="out"/>
<feColorMatrix type="matrix" values="0 0 0 0 0 0 0 0 0 0 0 0 0 0 0 0 0 0 0.25 0"/>
<feBlend mode="normal" in2="BackgroundImageFix" result="effect1_dropShadow_2_46"/>
<feBlend mode="normal" in="SourceGraphic" in2="effect1_dropShadow_2_46" result="shape"/>
</filter>
<filter id="filter2_d_2_46" x="-780" y="1499" width="4560" height="2697.9" filterUnits="userSpaceOnUse" color-interpolation-filters="sRGB">
<feFlood flood-opacity="0" result="BackgroundImageFix"/>
<feColorMatrix in="SourceAlpha" type="matrix" values="0 0 0 0 0 0 0 0 0 0 0 0 0 0 0 0 0 0 127 0" result="hardAlpha"/>
<feOffset dy="4"/>
<feGaussianBlur stdDeviation="2"/>
<feComposite in2="hardAlpha" operator="out"/>
<feColorMatrix type="matrix" values="0 0 0 0 0 0 0 0 0 0 0 0 0 0 0 0 0 0 0.25 0"/>
<feBlend mode="normal" in2="BackgroundImageFix" result="effect1_dropShadow_2_46"/>
<feBlend mode="normal" in="SourceGraphic" in2="effect1_dropShadow_2_46" result="shape"/>
</filter>
<clipPath id="clip0_2_46">
<rect width="4552" height="2560" fill="white"/>
</clipPath>
</defs>
</svg>
