<svg width="4544" height="2556" viewBox="0 0 4544 2556" fill="none" xmlns="http://www.w3.org/2000/svg">
<g clip-path="url(#clip0_3_18)">
<path d="M4544 0H0V2556H4544V0Z" fill="#001220"/>
<path d="M819.785 2565.88L860.284 2517.35C901.452 2468.82 982.448 2371.75 1085.2 2295.78C1187.95 2219.8 1311.79 2165.58 1405.51 2080.57C1499.22 1995.55 1562.81 1881.09 1648.16 1787.71C1733.51 1694.33 1840.61 1623.37 1970.47 1574.51C2100.67 1525.97 2253.29 1500.54 2338.31 1406.82C2422.99 1312.77 2439.72 1151.45 2488.92 1021.92C2538.12 892.393 2619.12 795.331 2729.9 727.387C2840.35 659.109 2979.59 620.284 3116.48 578.447C3253.03 536.275 3386.91 492.095 3472.93 399.384C3558.95 306.673 3596.43 166.1 3674.08 65.0213C3751.73 -36.0573 3868.88 -96.972 3947.53 -197.046C4026.18 -297.121 4066.35 -435.016 4086.43 -504.633L4106.51 -573.581L5154.11 474.021L5109.6 518.536C5064.75 563.386 4975.72 652.415 4886.36 741.779C4796.99 831.143 4707.96 920.173 4618.6 1009.54C4529.23 1098.9 4440.2 1187.93 4350.84 1277.29C4261.48 1366.66 4172.45 1455.69 4083.08 1545.05C3993.72 1634.42 3904.69 1723.45 3815.33 1812.81C3725.96 1902.17 3636.93 1991.2 3547.57 2080.57C3458.2 2169.93 3369.17 2258.96 3279.81 2348.33C3190.45 2437.69 3101.42 2526.72 3012.05 2616.08C2922.69 2705.45 2833.66 2794.48 2744.29 2883.84C2654.93 2973.21 2565.9 3062.23 2476.54 3151.6C2387.17 3240.96 2298.14 3329.99 2208.78 3419.36C2119.41 3508.72 2030.39 3597.75 1985.54 3642.6L1941.02 3687.11L819.785 2565.88Z" fill="#BE18B4"/>
<path d="M1138.02 2748.11L1194.25 2715.31C1250.81 2682.18 1363.27 2616.58 1446.95 2521.52C1530.96 2426.8 1585.18 2302.97 1641.74 2180.8C1698.3 2058.64 1755.87 1938.15 1861.97 1865.52C1968.07 1792.89 2122.03 1768.79 2244.86 1712.9C2367.7 1657 2458.74 1569.98 2511.28 1443.8C2563.83 1317.62 2577.22 1152.95 2672.61 1069.61C2768 986.268 2945.39 985.599 3051.49 912.97C3157.58 840.34 3191.72 696.421 3269.04 595.007C3346.02 493.259 3465.17 434.353 3575.62 366.074C3686.41 298.131 3787.48 221.15 3875.17 130.113C3962.87 39.0752 4036.5 -65.3502 4099.09 -181.49C4161.68 -297.63 4212.55 -424.815 4238.66 -488.408L4264.09 -552L5184.51 368.417L5140 412.932C5095.15 457.781 5006.12 546.811 4916.75 636.175C4827.39 725.539 4738.36 814.569 4648.99 903.933C4559.63 993.297 4470.6 1082.33 4381.24 1171.69C4291.87 1261.05 4202.84 1350.08 4113.48 1439.45C4024.12 1528.81 3935.09 1617.84 3845.72 1707.21C3756.36 1796.57 3667.33 1885.6 3577.96 1974.96C3488.6 2064.33 3399.57 2153.36 3310.21 2242.72C3220.84 2332.09 3131.81 2421.12 3042.45 2510.48C2953.08 2599.84 2864.05 2688.87 2774.69 2778.24C2685.33 2867.6 2596.3 2956.63 2506.93 3045.99C2417.57 3135.36 2328.54 3224.39 2239.18 3313.75C2149.81 3403.12 2060.78 3492.15 2015.93 3537L1971.42 3581.51L1138.02 2748.11Z" fill="#B10EB8"/>
<path d="M1288.69 2890.78L1339.9 2852.96C1391.44 2814.8 1493.86 2739.16 1565.48 2632.06C1636.77 2524.62 1676.94 2386.73 1752.24 2283.31C1827.55 2179.88 1938 2112.28 2051.13 2046.67C2164.59 1981.41 2280.4 1919.15 2360.39 1820.42C2440.05 1721.35 2483.56 1586.8 2542.13 1466.64C2600.7 1346.49 2674.33 1242.06 2793.82 1182.82C2913.31 1123.58 3077.98 1110.19 3191.44 1044.93C3304.9 979.66 3365.82 862.516 3455.18 773.152C3544.55 683.788 3661.69 622.873 3768.12 550.578C3874.89 478.618 3970.62 396.283 4034.88 281.816C4099.14 167.35 4131.27 21.4218 4208.25 -80.3261C4285.57 -181.739 4406.73 -238.638 4467.98 -267.087L4528.56 -295.536L5154.44 330.347L5109.93 374.862C5065.08 419.711 4976.05 508.741 4886.68 598.105C4797.32 687.469 4708.29 776.499 4618.92 865.863C4529.56 955.227 4440.53 1044.26 4351.17 1133.62C4261.8 1222.98 4172.77 1312.01 4083.41 1401.38C3994.04 1490.74 3905.02 1579.77 3815.65 1669.14C3726.29 1758.5 3637.26 1847.53 3547.89 1936.89C3458.53 2026.26 3369.5 2115.29 3280.14 2204.65C3190.77 2294.02 3101.74 2383.05 3012.38 2472.41C2923.01 2561.77 2833.98 2650.8 2744.62 2740.17C2655.26 2829.53 2566.23 2918.56 2476.86 3007.92C2387.5 3097.29 2298.47 3186.32 2209.1 3275.68C2119.74 3365.05 2030.71 3454.08 1985.86 3498.93L1941.35 3543.44L1288.69 2890.78Z" fill="#A205BB"/>
<path d="M1429.63 2919.72L1470.12 2871.19C1511.29 2822.66 1592.29 2725.6 1681.32 2635.9C1770.01 2545.86 1865.74 2463.53 1993.59 2412.65C2121.45 2361.78 2280.76 2343.04 2399.58 2283.13C2518.73 2223.55 2596.38 2123.14 2646.25 1994.28C2696.12 1865.42 2716.87 1708.12 2804.56 1617.08C2892.25 1526.04 3046.21 1501.94 3161.68 1438.68C3277.16 1375.43 3354.14 1274.35 3441.16 1182.64C3528.18 1090.93 3625.24 1009.94 3689.5 895.471C3753.76 781.005 3784.56 633.738 3847.14 517.598C3909.73 401.458 4003.45 317.115 4118.25 253.187C4233.38 189.595 4369.27 147.423 4455.29 54.712C4541.31 -37.9991 4576.78 -180.58 4594.86 -252.205L4612.6 -323.496L5312.11 376.021L5267.6 420.536C5222.75 465.385 5133.72 554.415 5044.36 643.779C4954.99 733.143 4865.96 822.173 4776.6 911.537C4687.23 1000.9 4598.2 1089.93 4508.84 1179.29C4419.48 1268.66 4330.45 1357.69 4241.08 1447.05C4151.72 1536.42 4062.69 1625.45 3973.33 1714.81C3883.96 1804.17 3794.93 1893.2 3705.57 1982.57C3616.2 2071.93 3527.17 2160.96 3437.81 2250.33C3348.45 2339.69 3259.42 2428.72 3170.05 2518.08C3080.69 2607.45 2991.66 2696.48 2902.29 2785.84C2812.93 2875.21 2723.9 2964.23 2634.54 3053.6C2545.17 3142.96 2456.14 3231.99 2366.78 3321.36C2277.41 3410.72 2188.39 3499.75 2143.54 3544.6L2099.02 3589.11L1429.63 2919.72Z" fill="#9103BF"/>
<path d="M1824.47 3345.56L1880.03 3312.09C1936.26 3278.62 2047.37 3211.68 2136.74 3122.32C2226.1 3032.95 2293.04 2921.83 2364 2814.06C2434.95 2706.29 2509.26 2602.53 2610 2524.55C2710.41 2446.23 2836.26 2394.02 2921.27 2300.3C3005.95 2206.25 3049.46 2071.7 3104.68 1948.2C3159.91 1824.7 3226.85 1713.58 3303.83 1611.83C3380.81 1510.08 3467.83 1419.04 3554.85 1327.34C3641.87 1235.63 3728.89 1144.59 3833.65 1070.62C3938.75 996.989 4061.25 941.43 4167.35 868.8C4273.45 796.171 4362.48 707.141 4444.48 610.414C4526.81 514.021 4601.11 410.265 4691.15 321.57C4781.18 232.876 4885.61 159.242 4938.49 122.426L4990.7 85.6088L5419.11 514.021L5374.6 558.536C5329.75 603.385 5240.72 692.415 5151.36 781.779C5061.99 871.143 4972.96 960.173 4883.6 1049.54C4794.23 1138.9 4705.21 1227.93 4615.84 1317.29C4526.48 1406.66 4437.45 1495.69 4348.08 1585.05C4258.72 1674.42 4169.69 1763.45 4080.33 1852.81C3990.96 1942.17 3901.93 2031.2 3812.57 2120.57C3723.2 2209.93 3634.17 2298.96 3544.81 2388.33C3455.45 2477.69 3366.42 2566.72 3277.05 2656.08C3187.69 2745.45 3098.66 2834.48 3009.29 2923.84C2919.93 3013.21 2830.9 3102.23 2741.54 3191.6C2652.17 3280.96 2563.14 3369.99 2473.78 3459.36C2384.41 3548.72 2295.39 3637.75 2250.54 3682.6L2206.02 3727.11L1824.47 3345.56Z" fill="#7D06C3"/>
<path d="M2005.2 3526.3L2031.98 3464.04C2058.75 3401.12 2112.31 3276.61 2166.86 3152.44C2221.75 3028.6 2277.31 2906.1 2349.94 2800C2422.57 2693.9 2511.6 2604.87 2613.35 2527.89C2714.76 2450.58 2828.56 2386.32 2953.4 2332.43C3078.58 2278.88 3214.46 2236.71 3298.14 2141.65C3382.15 2046.93 3412.94 1899.67 3488.58 1796.58C3563.89 1693.16 3683.04 1634.25 3779.1 1551.58C3875.16 1468.91 3947.45 1363.15 4017.4 1254.37C4087.02 1145.26 4153.96 1034.14 4243.32 944.777C4332.69 855.412 4443.81 788.473 4561.29 727.223C4678.43 665.639 4800.93 610.079 4910.37 540.797C5019.82 471.515 5115.54 389.179 5163.74 347.677L5211.6 306.509L5419.11 514.021L5374.6 558.536C5329.75 603.385 5240.72 692.415 5151.36 781.779C5061.99 871.143 4972.96 960.173 4883.6 1049.54C4794.23 1138.9 4705.21 1227.93 4615.84 1317.29C4526.48 1406.66 4437.45 1495.69 4348.08 1585.05C4258.72 1674.42 4169.69 1763.45 4080.33 1852.81C3990.96 1942.17 3901.93 2031.2 3812.57 2120.57C3723.2 2209.93 3634.17 2298.96 3544.81 2388.33C3455.45 2477.69 3366.42 2566.72 3277.05 2656.08C3187.69 2745.45 3098.66 2834.48 3009.29 2923.84C2919.93 3013.21 2830.9 3102.23 2741.54 3191.6C2652.17 3280.96 2563.14 3369.99 2473.78 3459.36C2384.42 3548.72 2295.39 3637.75 2250.54 3682.6L2206.02 3727.11L2005.2 3526.3Z" fill="#660DC6"/>
<path d="M1348.8 4452.89L1365.92 4374.91C1383.41 4296.57 1417.66 4140.6 1545.99 4078C1673.1 4014.17 1894.79 4045.64 2063.28 4023.2C2231.78 4000.76 2346.36 3925.12 2410.18 3798.01C2472.79 3669.68 2482.7 3489.37 2541.66 3357.39C2600.61 3225.41 2707.89 3142.47 2870.3 3113.95C3032.71 3085.42 2946.11 2959.55 3100 2922.5C3255.1 2886.67 3330.81 2806.75 3335 2620C3339.19 2433.25 3574.55 2292.86 3612.81 2140.19C3651.08 1987.52 3811.91 1958.13 3941.45 1896.74C4071 1835.35 4170.98 1745.11 4225.06 1608.26C4280.37 1472.63 4290.28 1292.33 4413.74 1224.85C4538.42 1158.59 4774.71 1204.67 4894.43 1228.56L5012.58 1251.6L5438.56 1677.58L5391.01 1725.14C5343.09 1773.05 5247.98 1868.16 5152.52 1963.63C5057.05 2059.09 4961.94 2154.2 4866.47 2249.67C4771 2345.14 4675.89 2440.25 4580.43 2535.72C4484.96 2631.18 4389.85 2726.29 4294.38 2821.76C4198.92 2917.23 4103.81 3012.34 4008.34 3107.81C3912.87 3203.27 3817.76 3298.38 3722.29 3393.85C3626.83 3489.32 3531.72 3584.43 3436.25 3679.89C3340.78 3775.36 3245.67 3870.47 3150.2 3965.94C3054.74 4061.41 2959.63 4156.52 2864.16 4251.98C2768.69 4347.45 2673.58 4442.56 2578.11 4538.03C2482.65 4633.5 2387.54 4728.61 2292.07 4824.07C2196.6 4919.54 2101.49 5014.65 2053.58 5062.56L2006.02 5110.12L1348.8 4452.89Z" fill="#4614CA"/>
</g>
<defs>
<clipPath id="clip0_3_18">
<rect width="4544" height="2556" fill="white"/>
</clipPath>
</defs>
</svg>
