<svg width="4592" height="2582" viewBox="0 0 4592 2582" fill="none" xmlns="http://www.w3.org/2000/svg">
<g clip-path="url(#clip0_2_61)" filter="url(#filter0_i_2_61)">
<path d="M0 0H4592V2582H0V0Z" fill="#252525"/>
<g filter="url(#filter1_d_2_61)">
<path d="M3540.29 2869.64L3444.23 2844.99C3347.84 2820.01 3155.72 2770.72 3081.27 2605.43C3006.82 2440.14 3050.04 2158.85 3022.52 1947.02C2995.6 1734.6 2897.35 1592.24 2724.15 1523.52C2550.95 1454.8 2302.28 1461.59 2176.68 1347.01C2051.09 1232.44 2048.58 996.485 1984.96 820.456C1921.34 644.426 1797.82 527.122 1627.02 456.016C1456.83 384.313 1240.65 358.89 1101.82 257.438C963.593 155.39 902.115 -22.0908 741.624 -102.064C581.133 -182.037 320.426 -163.31 190.338 -154.883L59.9841 -145.519L-1329.9 1232.69L-1269.95 1293.13C-1209.65 1353.91 -1089.74 1474.79 -970.165 1595.34C-850.589 1715.88 -731.349 1836.08 -611.773 1956.63C-492.196 2077.17 -372.283 2198.05 -252.033 2319.28C-131.783 2440.5 -11.8702 2561.38 107.706 2681.93C227.282 2802.47 346.522 2922.67 466.098 3043.22C585.675 3163.76 705.588 3284.65 825.838 3405.87C946.088 3527.09 1066 3647.97 1185.58 3768.52C1305.15 3889.06 1424.39 4009.27 1543.97 4129.81C1663.55 4250.35 1783.46 4371.24 1843.75 4432.02L1903.71 4492.46L3540.29 2869.64Z" fill="#19CCDE"/>
</g>
<g filter="url(#filter2_d_2_61)">
<path d="M5374.82 1920.35L5289.68 1971.19C5204.05 2022.02 5033.77 2123.7 4863.96 2060.15C4694.15 1996.61 4524.82 1767.85 4355.01 1638.22C4185.2 1507.74 4014.92 1477.24 3844.15 1551.8C3673.39 1626.36 3503.1 1807.67 3333.29 1816.14C3163.48 1824.61 2994.15 1660.25 2824.34 1581.45C2654.54 1502.66 2484.25 1507.74 2313.49 1578.91C2142.72 1649.23 1972.43 1784.79 1802.63 1811.9C1632.82 1838.17 1463.49 1756.83 1293.68 1814.45C1123.87 1872.06 953.583 2070.32 867.962 2168.6L782.818 2267.73V4224.9H867.962C953.583 4224.9 1123.87 4224.9 1293.68 4224.9C1463.49 4224.9 1632.82 4224.9 1802.63 4224.9C1972.43 4224.9 2142.72 4224.9 2313.49 4224.9C2484.25 4224.9 2654.54 4224.9 2824.34 4224.9C2994.15 4224.9 3163.48 4224.9 3333.29 4224.9C3503.1 4224.9 3673.39 4224.9 3844.15 4224.9C4014.92 4224.9 4185.2 4224.9 4355.01 4224.9C4524.82 4224.9 4694.15 4224.9 4863.96 4224.9C5033.77 4224.9 5204.05 4224.9 5289.68 4224.9H5374.82V1920.35Z" fill="#19CCDE"/>
</g>
<path d="M3320.21 2588.51L3257.64 2530.69C3195.07 2472.18 3069.92 2356.53 2896.42 2289.9C2722.92 2223.27 2500.38 2206.34 2394.51 2072.09C2288.64 1937.84 2298.76 1686.95 2230.09 1514.15C2161.08 1341.7 2013.62 1248.36 1838.76 1183.08C1664.24 1117.47 1462 1080.25 1304.39 997.731C1146.44 915.549 1032.79 788.399 928.276 651.444C824.098 514.151 729.388 368.068 595.45 261.88C461.174 156.031 287.333 90.4158 141.222 -3.59995C-4.55149 -97.9538 -122.933 -220.37 -182.124 -282.255L-241.315 -343.463L-839.87 254.977L-779.665 315.171C-719.121 375.703 -598.71 496.091 -478.638 616.141C-358.565 736.19 -238.831 855.902 -118.758 975.951C1.31473 1096 121.726 1216.39 242.475 1337.11C363.224 1457.84 483.634 1578.23 603.707 1698.28C723.78 1818.33 843.514 1938.04 963.587 2058.09C1083.66 2178.14 1204.07 2298.53 1324.82 2419.25C1445.57 2539.98 1565.98 2660.37 1686.05 2780.41C1806.12 2900.46 1925.86 3020.18 2045.93 3140.23C2166 3260.28 2286.42 3380.66 2346.96 3441.19L2407.16 3501.39L3320.21 2588.51Z" fill="#00B7E6"/>
<path d="M5026.79 1715.14L4860.33 1718.32C4692.95 1721.04 4360.04 1727.39 4028.07 1799.07C3696.1 1870.75 3358.23 1946.01 3033.1 1989.61C2727.91 2030.54 2271.57 2113.98 2017.17 1691.22C1665.03 1106.04 1461.16 980.259 1129.19 1053.75C797.225 1126.79 372.67 1949.69 40.7003 2000.05C-291.269 2050.86 -624.173 2041.79 -958.013 2020.01C-1291.85 1997.78 -1624.76 1963.3 -1956.73 1981.9C-2288.7 2000.96 -2619.73 2073.54 -2951.7 2108.47C-3283.67 2142.95 -3616.57 2140.23 -3783.96 2138.42L-3950.41 2137.06V2940.05H-3783.96C-3616.57 2940.05 -3283.67 2940.05 -2951.7 2940.05C-2619.73 2940.05 -2288.7 2940.05 -1956.73 2940.05C-1624.76 2940.05 -1291.85 2940.05 -958.013 2940.05C-624.173 2940.05 -291.269 2940.05 40.7003 2940.05C372.67 2940.05 703.704 2940.05 1035.67 2940.05C1367.64 2940.05 1700.55 2940.05 2034.39 2940.05C2368.23 2940.05 2701.13 2940.05 3033.1 2940.05C3365.07 2940.05 3696.1 2940.05 4028.07 2940.05C4360.04 2940.05 4692.95 2940.05 4860.33 2940.05H5026.79V1715.14Z" fill="#00B7E6"/>
<path d="M2960.33 3358.83L2941.38 3257.38C2921.76 3155.94 2883.86 2953.06 2759.05 2837.74C2634.58 2722.09 2423.54 2693.66 2309.56 2567.53C2195.91 2441.05 2178.98 2217.21 2084.94 2069.77C1990.57 1922.67 1819.44 1853 1700.38 1731.94C1581.66 1610.53 1514.68 1438.08 1416.25 1296.39C1317.48 1155.04 1186.92 1044.8 1013.76 976.476C840.593 908.156 625.495 882.437 514.891 752.92C404.626 623.066 398.515 389.752 333.902 214.253C268.95 39.0933 145.158 -77.9134 82.9234 -136.755L21.0272 -195.258L-770.283 595.9L-710.077 656.094C-649.534 716.626 -529.123 837.014 -409.05 957.063C-288.978 1077.11 -169.243 1196.82 -49.1706 1316.87C70.902 1436.92 191.313 1557.31 312.062 1678.04C432.811 1798.76 553.222 1919.15 673.294 2039.2C793.367 2159.25 913.102 2278.96 1033.17 2399.01C1153.25 2519.06 1273.66 2639.45 1394.41 2760.17C1515.16 2880.9 1635.57 3001.29 1755.64 3121.34C1875.71 3241.39 1995.45 3361.1 2115.52 3481.15C2235.59 3601.2 2356 3721.59 2416.55 3782.12L2476.75 3842.31L2960.33 3358.83Z" fill="#009FE7"/>
<path d="M4652.53 2192.42L4555.43 2120.98C4457.79 2050.12 4263.6 1907.24 4069.95 1915.44C3876.31 1923.05 3683.21 2081.16 3489.56 2070.62C3295.92 2059.49 3101.73 1880.3 2906.99 1834.04C2712.25 1788.37 2518.06 1876.2 2324.42 1874.45C2130.77 1872.11 1866.65 1872.14 1671.06 1699.17C1458.1 1510.85 1356.19 1723.95 1161.45 1814.72C966.714 1905.48 772.522 2069.45 578.877 2053.05C385.231 2036.07 192.131 1839.31 -1.51495 1743.28C-195.161 1647.82 -389.352 1653.68 -486.993 1656.61L-584.088 1659.54V3029.82H-486.993C-389.352 3029.82 -195.161 3029.82 -1.51495 3029.82C192.131 3029.82 385.231 3029.82 578.877 3029.82C772.522 3029.82 966.714 3029.82 1161.45 3029.82C1356.19 3029.82 1550.38 3029.82 1744.02 3029.82C1937.67 3029.82 2130.77 3029.82 2324.42 3029.82C2518.06 3029.82 2712.25 3029.82 2906.99 3029.82C3101.73 3029.82 3295.92 3029.82 3489.56 3029.82C3683.21 3029.82 3876.31 3029.82 4069.95 3029.82C4263.6 3029.82 4457.79 3029.82 4555.43 3029.82H4652.53V2192.42Z" fill="#009FE7"/>
<path d="M2778.82 3498.95L2746.68 3410.69C2714.54 3321.76 2650.27 3145.25 2551.16 3004.24C2452.06 2863.22 2317.44 2758.39 2195.34 2640.37C2072.9 2522.68 1962.63 2392.15 1810.77 2302.53C1659.25 2212.58 1466.47 2164.54 1307.51 2083.37C1148.55 2002.21 1023.4 1887.9 932.414 1738.78C841.762 1589.31 785.603 1404.69 685.144 1263.67C584.685 1122.66 440.602 1025.94 312.076 914.344C183.549 802.747 70.5776 676.273 -49.495 556.224C-169.568 436.174 -296.742 322.548 -360.667 265.397L-424.254 208.585L-928.123 712.356L-867.917 772.55C-807.374 833.082 -686.963 953.47 -566.89 1073.52C-446.817 1193.57 -327.083 1313.28 -207.01 1433.33C-86.9377 1553.38 33.4731 1673.77 154.222 1794.49C274.971 1915.22 395.382 2035.61 515.455 2155.66C635.527 2275.71 755.262 2395.42 875.334 2515.47C995.407 2635.52 1115.82 2755.9 1236.57 2876.63C1357.32 2997.36 1477.73 3117.74 1597.8 3237.79C1717.87 3357.84 1837.61 3477.55 1957.68 3597.6C2077.75 3717.65 2198.16 3838.04 2258.71 3898.57L2318.91 3958.77L2778.82 3498.95Z" fill="#0084DF"/>
<path d="M4775.6 2358.88L4690.46 2319.19C4604.83 2279.03 4434.55 2199.65 4264.74 2170.01C4094.93 2140.36 3925.6 2161.4 3755.79 2164.27C3585.98 2167.62 3415.7 2153.27 3244.93 2197.26C3074.17 2240.78 2903.88 2343.1 2734.07 2398.09C2564.26 2453.07 2394.93 2460.72 2225.13 2419.6C2055.32 2378 1868.95 2320.48 1712.92 2251.18C1546.64 2177.33 1373.21 2263.25 1203.41 2275.2C1033.6 2287.16 864.268 2277.59 694.459 2277.59C524.651 2277.59 354.364 2287.16 268.742 2291.94L183.599 2296.72V3009.16H268.742C354.364 3009.16 524.651 3009.16 694.459 3009.16C864.268 3009.16 1033.6 3009.16 1203.41 3009.16C1373.21 3009.16 1543.5 3009.16 1714.27 3009.16C1885.03 3009.16 2055.32 3009.16 2225.13 3009.16C2394.93 3009.16 2564.26 3009.16 2734.07 3009.16C2903.88 3009.16 3074.17 3009.16 3244.93 3009.16C3415.7 3009.16 3585.98 3009.16 3755.79 3009.16C3925.6 3009.16 4094.93 3009.16 4264.74 3009.16C4434.55 3009.16 4604.83 3009.16 4690.46 3009.16H4775.6V2358.88Z" fill="#0084DF"/>
<path d="M2438.67 3832.98L2379.83 3771.42C2321.12 3709.06 2203.45 3585.93 2091.14 3458.12C1978.83 3330.3 1870.98 3198.72 1776.94 3052.64C1682.9 2906.56 1601.78 2746.89 1507.98 2599.22C1413.72 2452.01 1307.02 2317.92 1167.76 2217.05C1028.96 2115.72 857.149 2048.08 711.953 1953.15C566.757 1858.21 448.173 1736 350.264 1592.44C252.354 1448.88 175.795 1284.65 80.3887 1139.94C-15.4742 995.681 -130.641 871.402 -239.294 739.935C-347.947 608.468 -450.086 469.812 -501.494 400.146L-552.564 330.819L-1219.47 997.6L-1159.27 1057.79C-1098.72 1118.33 -978.313 1238.71 -858.241 1358.76C-738.168 1478.81 -618.434 1598.52 -498.361 1718.57C-378.288 1838.62 -257.878 1959.01 -137.128 2079.74C-16.3793 2200.46 104.031 2320.85 224.104 2440.9C344.177 2560.95 463.911 2680.66 583.984 2800.71C704.057 2920.76 824.467 3041.15 945.216 3161.87C1065.97 3282.6 1186.38 3402.99 1306.45 3523.04C1426.52 3643.09 1546.26 3762.8 1666.33 3882.85C1786.4 4002.9 1906.81 4123.29 1967.36 4183.82L2027.56 4244.01L2438.67 3832.98Z" fill="#0068D3"/>
<path d="M5374.82 2395.01L5289.68 2393.08C5204.05 2390.49 5033.77 2386.62 4863.96 2375.64C4694.15 2364.66 4524.82 2347.86 4355.01 2311.05C4185.2 2274.23 4014.92 2218.69 3844.15 2180.58C3673.39 2143.12 3503.1 2123.75 3333.29 2150.87C3163.48 2177.35 2994.15 2250.98 2824.34 2286.51C2654.54 2322.03 2484.25 2319.45 2313.48 2287.15C2142.72 2254.86 1972.43 2192.85 1802.62 2157.98C1632.82 2123.75 1463.49 2117.29 1293.68 2101.14C1123.87 2084.99 933.127 2089.81 867.961 2046.24L818.126 2014.67L773.739 1992.98L782.818 2976.3H867.961C953.583 2976.3 1123.87 2976.3 1293.68 2976.3C1463.49 2976.3 1632.82 2976.3 1802.62 2976.3C1972.43 2976.3 2142.72 2976.3 2313.48 2976.3C2484.25 2976.3 2654.54 2976.3 2824.34 2976.3C2994.15 2976.3 3163.48 2976.3 3333.29 2976.3C3503.1 2976.3 3673.39 2976.3 3844.15 2976.3C4014.92 2976.3 4185.2 2976.3 4355.01 2976.3C4524.82 2976.3 4694.15 2976.3 4863.96 2976.3C5033.77 2976.3 5204.05 2976.3 5289.68 2976.3H5374.82V2395.01Z" fill="#0068D3"/>
<path d="M2140.96 4122.56L2106.62 4036.51C2072.73 3949.34 2004.04 3777.23 1897.29 3643.86C1790.54 3510.49 1644.16 3417.42 1531.93 3289.53C1419.69 3161.65 1341.6 2998.95 1207.53 2891.54C1073.46 2784.14 885.645 2731.14 771.842 2604.82C658.04 2478.5 619.815 2277.3 551.471 2105.53C483.909 1932.98 387.011 1789.08 209.048 1725.56C30.3015 1662.82 -228.05 1680.35 -395.148 1607.31C-562.246 1534.28 -638.09 1370.69 -701.732 1194.22C-765.375 1017.75 -818.383 829.97 -844.441 734.959L-870.945 641.071L-1521.46 1291.46L-1461.26 1351.66C-1400.71 1412.19 -1280.3 1532.58 -1160.23 1652.62C-1040.16 1772.67 -920.421 1892.39 -800.348 2012.44C-680.276 2132.48 -559.865 2252.87 -439.116 2373.6C-318.367 2494.32 -197.956 2614.71 -77.8834 2734.76C42.1892 2854.81 161.924 2974.52 281.996 3094.57C402.069 3214.62 522.48 3335.01 643.229 3455.74C763.978 3576.46 884.389 3696.85 1004.46 3816.9C1124.53 3936.95 1244.27 4056.66 1364.34 4176.71C1484.41 4296.76 1604.82 4417.15 1665.37 4477.68L1725.57 4537.87L2140.96 4122.56Z" fill="#0C49C2"/>
<path d="M4592 2530.38L4466.7 2493.81C4340.69 2456.15 4090.09 2383.02 3840.19 2364.19C3590.29 2345.36 3341.09 2383.02 3091.19 2371.95C2841.29 2360.87 2590.69 2301.04 2339.38 2319.87C2088.07 2338.71 1837.47 2433.99 1587.57 2425.12C1337.66 2416.26 702.62 2251.69 443.362 1904.73C68.3313 1800.41 338.064 2113.82 86.7555 2194.7C-164.553 2276.68 -415.157 2478.3 -665.057 2544.78C-914.957 2611.25 -1164.15 2549.21 -1414.05 2469.44C-1663.95 2389.67 -1914.56 2294.39 -2040.56 2245.64L-2165.87 2198V3117.56H-2040.56C-1914.56 3117.56 -1663.95 3117.56 -1414.05 3117.56C-1164.15 3117.56 -914.957 3117.56 -665.057 3117.56C-415.157 3117.56 -164.553 3117.56 86.7555 3117.56C338.064 3117.56 588.668 3117.56 838.568 3117.56C1088.47 3117.56 1337.66 3117.56 1587.57 3117.56C1837.47 3117.56 2088.07 3117.56 2339.38 3117.56C2590.69 3117.56 2841.29 3117.56 3091.19 3117.56C3341.09 3117.56 3590.29 3117.56 3840.19 3117.56C4090.09 3117.56 4340.69 3117.56 4466.7 3117.56H4592V2530.38Z" fill="#0C49C2"/>
</g>
<defs>
<filter id="filter0_i_2_61" x="0" y="0" width="4592" height="2586" filterUnits="userSpaceOnUse" color-interpolation-filters="sRGB">
<feFlood flood-opacity="0" result="BackgroundImageFix"/>
<feBlend mode="normal" in="SourceGraphic" in2="BackgroundImageFix" result="shape"/>
<feColorMatrix in="SourceAlpha" type="matrix" values="0 0 0 0 0 0 0 0 0 0 0 0 0 0 0 0 0 0 127 0" result="hardAlpha"/>
<feOffset dy="4"/>
<feGaussianBlur stdDeviation="2"/>
<feComposite in2="hardAlpha" operator="arithmetic" k2="-1" k3="1"/>
<feColorMatrix type="matrix" values="0 0 0 0 0 0 0 0 0 0 0 0 0 0 0 0 0 0 0.25 0"/>
<feBlend mode="normal" in2="shape" result="effect1_innerShadow_2_61"/>
</filter>
<filter id="filter1_d_2_61" x="-1339.9" y="-168.977" width="4890.19" height="4675.44" filterUnits="userSpaceOnUse" color-interpolation-filters="sRGB">
<feFlood flood-opacity="0" result="BackgroundImageFix"/>
<feColorMatrix in="SourceAlpha" type="matrix" values="0 0 0 0 0 0 0 0 0 0 0 0 0 0 0 0 0 0 127 0" result="hardAlpha"/>
<feOffset dy="4"/>
<feGaussianBlur stdDeviation="5"/>
<feComposite in2="hardAlpha" operator="out"/>
<feColorMatrix type="matrix" values="0 0 0 0 0 0 0 0 0 0 0 0 0 0 0 0 0 0 0.25 0"/>
<feBlend mode="normal" in2="BackgroundImageFix" result="effect1_dropShadow_2_61"/>
<feBlend mode="normal" in="SourceGraphic" in2="effect1_dropShadow_2_61" result="shape"/>
</filter>
<filter id="filter2_d_2_61" x="778.818" y="1511.88" width="4600" height="2721.01" filterUnits="userSpaceOnUse" color-interpolation-filters="sRGB">
<feFlood flood-opacity="0" result="BackgroundImageFix"/>
<feColorMatrix in="SourceAlpha" type="matrix" values="0 0 0 0 0 0 0 0 0 0 0 0 0 0 0 0 0 0 127 0" result="hardAlpha"/>
<feOffset dy="4"/>
<feGaussianBlur stdDeviation="2"/>
<feComposite in2="hardAlpha" operator="out"/>
<feColorMatrix type="matrix" values="0 0 0 0 0 0 0 0 0 0 0 0 0 0 0 0 0 0 0.25 0"/>
<feBlend mode="normal" in2="BackgroundImageFix" result="effect1_dropShadow_2_61"/>
<feBlend mode="normal" in="SourceGraphic" in2="effect1_dropShadow_2_61" result="shape"/>
</filter>
<clipPath id="clip0_2_61">
<rect width="4592" height="2582" fill="white" transform="matrix(-1 0 0 1 4592 0)"/>
</clipPath>
</defs>
</svg>
