<svg width="1920" height="1080" viewBox="0 0 1920 1080" fill="none" xmlns="http://www.w3.org/2000/svg">
<g clip-path="url(#clip0_104_579)">
<rect width="1920" height="1080" fill="#272727"/>
<path d="M171.957 935.944C171.981 940.781 168.079 944.721 163.243 944.745C158.406 944.769 154.466 940.867 154.442 936.031C154.418 931.194 158.319 927.254 163.156 927.23C167.992 927.206 171.933 931.107 171.957 935.944Z" fill="white" fill-opacity="0.15"/>
<path d="M171.957 1034.76C171.981 1039.59 168.079 1043.53 163.243 1043.56C158.406 1043.58 154.466 1039.68 154.442 1034.84C154.418 1030.01 158.319 1026.07 163.156 1026.04C167.992 1026.02 171.933 1029.92 171.957 1034.76Z" fill="white" fill-opacity="0.15"/>
<path d="M66.5582 935.944C66.5822 940.781 62.6808 944.721 57.8442 944.745C53.0076 944.769 49.0674 940.867 49.0434 936.031C49.0194 931.194 52.9208 927.254 57.7574 927.23C62.594 927.206 66.5342 931.107 66.5582 935.944Z" fill="white" fill-opacity="0.15"/>
<path d="M66.5582 1034.76C66.5822 1039.59 62.6808 1043.53 57.8442 1043.56C53.0076 1043.58 49.0674 1039.68 49.0434 1034.84C49.0194 1030.01 52.9208 1026.07 57.7574 1026.04C62.594 1026.02 66.5342 1029.92 66.5582 1034.76Z" fill="white" fill-opacity="0.15"/>
<path d="M171.957 835.808C171.981 840.645 168.079 844.585 163.243 844.609C158.406 844.633 154.466 840.732 154.442 835.895C154.418 831.059 158.319 827.118 163.156 827.094C167.992 827.07 171.933 830.972 171.957 835.808Z" fill="white" fill-opacity="0.15"/>
<path d="M66.5582 835.758C66.5822 840.594 62.6808 844.534 57.8442 844.558C53.0076 844.582 49.0674 840.681 49.0434 835.844C49.0194 831.008 52.9208 827.067 57.7574 827.044C62.594 827.02 66.5342 830.921 66.5582 835.758Z" fill="white" fill-opacity="0.15"/>
<path d="M171.957 737.429C171.981 742.266 168.079 746.206 163.243 746.23C158.406 746.254 154.466 742.353 154.442 737.516C154.418 732.68 158.319 728.739 163.156 728.715C167.992 728.691 171.933 732.593 171.957 737.429Z" fill="white" fill-opacity="0.15"/>
<path d="M171.558 638.199C171.582 643.036 167.681 646.976 162.844 647C158.008 647.024 154.067 643.122 154.043 638.286C154.019 633.449 157.921 629.509 162.757 629.485C167.594 629.461 171.534 633.362 171.558 638.199Z" fill="white" fill-opacity="0.15"/>
<path d="M171.957 538.037C171.981 542.873 168.079 546.814 163.243 546.838C158.406 546.862 154.466 542.96 154.442 538.124C154.418 533.287 158.319 529.347 163.156 529.323C167.992 529.299 171.933 533.2 171.957 538.037Z" fill="white" fill-opacity="0.15"/>
<path d="M171.957 440.536C171.981 445.372 168.079 449.313 163.243 449.337C158.406 449.361 154.466 445.459 154.442 440.623C154.418 435.786 158.319 431.846 163.156 431.822C167.992 431.798 171.933 435.699 171.957 440.536Z" fill="white" fill-opacity="0.15"/>
<path d="M171.957 340.4C171.981 345.237 168.079 349.177 163.243 349.201C158.406 349.225 154.466 345.323 154.442 340.487C154.418 335.65 158.319 331.71 163.156 331.686C167.992 331.662 171.933 335.564 171.957 340.4Z" fill="white" fill-opacity="0.15"/>
<path d="M171.957 241.143C171.981 245.979 168.079 249.92 163.243 249.944C158.406 249.968 154.466 246.066 154.442 241.23C154.418 236.393 158.319 232.453 163.156 232.429C167.992 232.405 171.933 236.306 171.957 241.143Z" fill="white" fill-opacity="0.15"/>
<path d="M171.957 141.007C171.981 145.844 168.079 149.784 163.243 149.808C158.406 149.832 154.466 145.93 154.442 141.094C154.418 136.257 158.319 132.317 163.156 132.293C167.992 132.269 171.933 136.17 171.957 141.007Z" fill="white" fill-opacity="0.15"/>
<path d="M171.558 44.7575C171.582 49.5941 167.681 53.5344 162.844 53.5583C158.008 53.5823 154.067 49.6809 154.043 44.8443C154.019 40.0077 157.921 36.0675 162.757 36.0435C167.594 36.0196 171.534 39.9209 171.558 44.7575Z" fill="white" fill-opacity="0.15"/>
<path d="M277.957 935.944C277.981 940.781 274.079 944.721 269.243 944.745C264.406 944.769 260.466 940.867 260.442 936.031C260.418 931.194 264.319 927.254 269.156 927.23C273.992 927.206 277.933 931.107 277.957 935.944Z" fill="white" fill-opacity="0.15"/>
<path d="M277.957 1034.76C277.981 1039.59 274.079 1043.53 269.243 1043.56C264.406 1043.58 260.466 1039.68 260.442 1034.84C260.418 1030.01 264.319 1026.07 269.156 1026.04C273.992 1026.02 277.933 1029.92 277.957 1034.76Z" fill="white" fill-opacity="0.15"/>
<path d="M277.957 835.808C277.981 840.645 274.079 844.585 269.243 844.609C264.406 844.633 260.466 840.732 260.442 835.895C260.418 831.059 264.319 827.118 269.156 827.094C273.992 827.07 277.933 830.972 277.957 835.808Z" fill="white" fill-opacity="0.15"/>
<path d="M277.957 737.429C277.981 742.266 274.079 746.206 269.243 746.23C264.406 746.254 260.466 742.353 260.442 737.516C260.418 732.68 264.319 728.739 269.156 728.715C273.992 728.691 277.933 732.593 277.957 737.429Z" fill="white" fill-opacity="0.15"/>
<path d="M277.558 638.199C277.582 643.036 273.681 646.976 268.844 647C264.008 647.024 260.067 643.122 260.043 638.286C260.019 633.449 263.921 629.509 268.757 629.485C273.594 629.461 277.534 633.362 277.558 638.199Z" fill="white" fill-opacity="0.15"/>
<path d="M277.957 538.037C277.981 542.873 274.079 546.814 269.243 546.838C264.406 546.862 260.466 542.96 260.442 538.124C260.418 533.287 264.319 529.347 269.156 529.323C273.992 529.299 277.933 533.2 277.957 538.037Z" fill="white" fill-opacity="0.15"/>
<path d="M277.957 440.536C277.981 445.372 274.079 449.313 269.243 449.337C264.406 449.361 260.466 445.459 260.442 440.623C260.418 435.786 264.319 431.846 269.156 431.822C273.992 431.798 277.933 435.699 277.957 440.536Z" fill="white" fill-opacity="0.15"/>
<path d="M277.957 340.4C277.981 345.237 274.079 349.177 269.243 349.201C264.406 349.225 260.466 345.323 260.442 340.487C260.418 335.65 264.319 331.71 269.156 331.686C273.992 331.662 277.933 335.564 277.957 340.4Z" fill="white" fill-opacity="0.15"/>
<path d="M277.957 241.143C277.981 245.979 274.079 249.92 269.243 249.944C264.406 249.968 260.466 246.066 260.442 241.23C260.418 236.393 264.319 232.453 269.156 232.429C273.992 232.405 277.933 236.306 277.957 241.143Z" fill="white" fill-opacity="0.15"/>
<path d="M277.957 141.007C277.981 145.844 274.079 149.784 269.243 149.808C264.406 149.832 260.466 145.93 260.442 141.094C260.418 136.257 264.319 132.317 269.156 132.293C273.992 132.269 277.933 136.17 277.957 141.007Z" fill="white" fill-opacity="0.15"/>
<path d="M277.558 44.7575C277.582 49.5941 273.681 53.5344 268.844 53.5583C264.008 53.5823 260.067 49.6809 260.043 44.8443C260.019 40.0077 263.921 36.0675 268.757 36.0435C273.594 36.0196 277.534 39.9209 277.558 44.7575Z" fill="white" fill-opacity="0.15"/>
<path d="M384.957 1034.76C384.981 1039.59 381.079 1043.53 376.243 1043.56C371.406 1043.58 367.466 1039.68 367.442 1034.84C367.418 1030.01 371.319 1026.07 376.156 1026.04C380.992 1026.02 384.933 1029.92 384.957 1034.76Z" fill="white" fill-opacity="0.15"/>
<path d="M384.957 835.808C384.981 840.645 381.079 844.585 376.243 844.609C371.406 844.633 367.466 840.732 367.442 835.895C367.418 831.059 371.319 827.118 376.156 827.094C380.992 827.07 384.933 830.972 384.957 835.808Z" fill="white" fill-opacity="0.15"/>
<path d="M384.957 737.429C384.981 742.266 381.079 746.206 376.243 746.23C371.406 746.254 367.466 742.353 367.442 737.516C367.418 732.68 371.319 728.739 376.156 728.715C380.992 728.691 384.933 732.593 384.957 737.429Z" fill="white" fill-opacity="0.15"/>
<path d="M384.558 638.199C384.582 643.036 380.681 646.976 375.844 647C371.008 647.024 367.067 643.122 367.043 638.286C367.019 633.449 370.921 629.509 375.757 629.485C380.594 629.461 384.534 633.362 384.558 638.199Z" fill="white" fill-opacity="0.15"/>
<path d="M384.957 538.037C384.981 542.873 381.079 546.814 376.243 546.838C371.406 546.862 367.466 542.96 367.442 538.124C367.418 533.287 371.319 529.347 376.156 529.323C380.992 529.299 384.933 533.2 384.957 538.037Z" fill="white" fill-opacity="0.15"/>
<path d="M384.957 440.536C384.981 445.372 381.079 449.313 376.243 449.337C371.406 449.361 367.466 445.459 367.442 440.623C367.418 435.786 371.319 431.846 376.156 431.822C380.992 431.798 384.933 435.699 384.957 440.536Z" fill="white" fill-opacity="0.15"/>
<path d="M384.957 340.4C384.981 345.237 381.079 349.177 376.243 349.201C371.406 349.225 367.466 345.323 367.442 340.487C367.418 335.65 371.319 331.71 376.156 331.686C380.992 331.662 384.933 335.564 384.957 340.4Z" fill="white" fill-opacity="0.15"/>
<path d="M384.957 241.143C384.981 245.979 381.079 249.92 376.243 249.944C371.406 249.968 367.466 246.066 367.442 241.23C367.418 236.393 371.319 232.453 376.156 232.429C380.992 232.405 384.933 236.306 384.957 241.143Z" fill="white" fill-opacity="0.15"/>
<path d="M384.957 141.007C384.981 145.844 381.079 149.784 376.243 149.808C371.406 149.832 367.466 145.93 367.442 141.094C367.418 136.257 371.319 132.317 376.156 132.293C380.992 132.269 384.933 136.17 384.957 141.007Z" fill="white" fill-opacity="0.15"/>
<path d="M384.558 44.7575C384.582 49.5941 380.681 53.5344 375.844 53.5583C371.008 53.5823 367.067 49.6809 367.043 44.8443C367.019 40.0077 370.921 36.0675 375.757 36.0435C380.594 36.0196 384.534 39.9209 384.558 44.7575Z" fill="white" fill-opacity="0.15"/>
<path d="M490.957 935.944C490.981 940.781 487.079 944.721 482.243 944.745C477.406 944.769 473.466 940.867 473.442 936.031C473.418 931.194 477.319 927.254 482.156 927.23C486.992 927.206 490.933 931.107 490.957 935.944Z" fill="white" fill-opacity="0.15"/>
<path d="M490.957 1034.76C490.981 1039.59 487.079 1043.53 482.243 1043.56C477.406 1043.58 473.466 1039.68 473.442 1034.84C473.418 1030.01 477.319 1026.07 482.156 1026.04C486.992 1026.02 490.933 1029.92 490.957 1034.76Z" fill="white" fill-opacity="0.15"/>
<path d="M490.957 835.808C490.981 840.645 487.079 844.585 482.243 844.609C477.406 844.633 473.466 840.732 473.442 835.895C473.418 831.059 477.319 827.118 482.156 827.094C486.992 827.07 490.933 830.972 490.957 835.808Z" fill="white" fill-opacity="0.15"/>
<path d="M490.957 737.429C490.981 742.266 487.079 746.206 482.243 746.23C477.406 746.254 473.466 742.353 473.442 737.516C473.418 732.68 477.319 728.739 482.156 728.715C486.992 728.691 490.933 732.593 490.957 737.429Z" fill="white" fill-opacity="0.15"/>
<path d="M490.558 638.199C490.582 643.036 486.681 646.976 481.844 647C477.008 647.024 473.067 643.122 473.043 638.286C473.019 633.449 476.921 629.509 481.757 629.485C486.594 629.461 490.534 633.362 490.558 638.199Z" fill="white" fill-opacity="0.15"/>
<path d="M490.957 538.037C490.981 542.873 487.079 546.814 482.243 546.838C477.406 546.862 473.466 542.96 473.442 538.124C473.418 533.287 477.319 529.347 482.156 529.323C486.992 529.299 490.933 533.2 490.957 538.037Z" fill="white" fill-opacity="0.15"/>
<path d="M490.957 440.536C490.981 445.372 487.079 449.313 482.243 449.337C477.406 449.361 473.466 445.459 473.442 440.623C473.418 435.786 477.319 431.846 482.156 431.822C486.992 431.798 490.933 435.699 490.957 440.536Z" fill="white" fill-opacity="0.15"/>
<path d="M490.957 340.4C490.981 345.237 487.079 349.177 482.243 349.201C477.406 349.225 473.466 345.323 473.442 340.487C473.418 335.65 477.319 331.71 482.156 331.686C486.992 331.662 490.933 335.564 490.957 340.4Z" fill="white" fill-opacity="0.15"/>
<path d="M490.957 241.143C490.981 245.979 487.079 249.92 482.243 249.944C477.406 249.968 473.466 246.066 473.442 241.23C473.418 236.393 477.319 232.453 482.156 232.429C486.992 232.405 490.933 236.306 490.957 241.143Z" fill="white" fill-opacity="0.15"/>
<path d="M490.957 141.007C490.981 145.844 487.079 149.784 482.243 149.808C477.406 149.832 473.466 145.93 473.442 141.094C473.418 136.257 477.319 132.317 482.156 132.293C486.992 132.269 490.933 136.17 490.957 141.007Z" fill="white" fill-opacity="0.15"/>
<path d="M490.558 44.7575C490.582 49.5941 486.681 53.5344 481.844 53.5583C477.008 53.5823 473.067 49.6809 473.043 44.8443C473.019 40.0077 476.921 36.0675 481.757 36.0435C486.594 36.0196 490.534 39.9209 490.558 44.7575Z" fill="white" fill-opacity="0.15"/>
<path d="M64.5582 339.758C64.5822 344.594 60.6808 348.534 55.8442 348.558C51.0076 348.582 47.0674 344.681 47.0434 339.844C47.0194 335.008 50.9208 331.067 55.7574 331.044C60.594 331.02 64.5342 334.921 64.5582 339.758Z" fill="white" fill-opacity="0.15"/>
<path d="M1871.96 935.944C1871.98 940.781 1868.08 944.721 1863.24 944.745C1858.41 944.769 1854.47 940.867 1854.44 936.031C1854.42 931.194 1858.32 927.254 1863.16 927.23C1867.99 927.206 1871.93 931.107 1871.96 935.944Z" fill="white" fill-opacity="0.15"/>
<path d="M1871.96 1034.76C1871.98 1039.59 1868.08 1043.53 1863.24 1043.56C1858.41 1043.58 1854.47 1039.68 1854.44 1034.84C1854.42 1030.01 1858.32 1026.07 1863.16 1026.04C1867.99 1026.02 1871.93 1029.92 1871.96 1034.76Z" fill="white" fill-opacity="0.15"/>
<path d="M1871.96 835.808C1871.98 840.645 1868.08 844.585 1863.24 844.609C1858.41 844.633 1854.47 840.732 1854.44 835.895C1854.42 831.059 1858.32 827.118 1863.16 827.094C1867.99 827.07 1871.93 830.972 1871.96 835.808Z" fill="white" fill-opacity="0.15"/>
<path d="M1871.96 737.429C1871.98 742.266 1868.08 746.206 1863.24 746.23C1858.41 746.254 1854.47 742.353 1854.44 737.516C1854.42 732.68 1858.32 728.739 1863.16 728.715C1867.99 728.691 1871.93 732.593 1871.96 737.429Z" fill="white" fill-opacity="0.15"/>
<path d="M1871.56 638.199C1871.58 643.036 1867.68 646.976 1862.84 647C1858.01 647.024 1854.07 643.122 1854.04 638.286C1854.02 633.449 1857.92 629.509 1862.76 629.485C1867.59 629.461 1871.53 633.362 1871.56 638.199Z" fill="white" fill-opacity="0.15"/>
<path d="M1871.96 538.037C1871.98 542.873 1868.08 546.814 1863.24 546.838C1858.41 546.862 1854.47 542.96 1854.44 538.124C1854.42 533.287 1858.32 529.347 1863.16 529.323C1867.99 529.299 1871.93 533.2 1871.96 538.037Z" fill="white" fill-opacity="0.15"/>
<path d="M1871.96 440.536C1871.98 445.372 1868.08 449.313 1863.24 449.337C1858.41 449.361 1854.47 445.459 1854.44 440.623C1854.42 435.786 1858.32 431.846 1863.16 431.822C1867.99 431.798 1871.93 435.699 1871.96 440.536Z" fill="white" fill-opacity="0.15"/>
<path d="M1871.96 340.4C1871.98 345.237 1868.08 349.177 1863.24 349.201C1858.41 349.225 1854.47 345.323 1854.44 340.487C1854.42 335.65 1858.32 331.71 1863.16 331.686C1867.99 331.662 1871.93 335.564 1871.96 340.4Z" fill="white" fill-opacity="0.15"/>
<path d="M1871.96 241.143C1871.98 245.979 1868.08 249.92 1863.24 249.944C1858.41 249.968 1854.47 246.066 1854.44 241.23C1854.42 236.393 1858.32 232.453 1863.16 232.429C1867.99 232.405 1871.93 236.306 1871.96 241.143Z" fill="white" fill-opacity="0.15"/>
<path d="M1871.96 141.007C1871.98 145.844 1868.08 149.784 1863.24 149.808C1858.41 149.832 1854.47 145.93 1854.44 141.094C1854.42 136.257 1858.32 132.317 1863.16 132.293C1867.99 132.269 1871.93 136.17 1871.96 141.007Z" fill="white" fill-opacity="0.15"/>
<path d="M1871.56 44.7575C1871.58 49.5941 1867.68 53.5344 1862.84 53.5583C1858.01 53.5823 1854.07 49.6809 1854.04 44.8443C1854.02 40.0077 1857.92 36.0675 1862.76 36.0435C1867.59 36.0196 1871.53 39.9209 1871.56 44.7575Z" fill="white" fill-opacity="0.15"/>
<path d="M65.5582 637.758C65.5822 642.594 61.6808 646.534 56.8442 646.558C52.0076 646.582 48.0674 642.681 48.0434 637.844C48.0194 633.008 51.9208 629.067 56.7574 629.044C61.594 629.02 65.5342 632.921 65.5582 637.758Z" fill="white" fill-opacity="0.15"/>
<path d="M65.5582 537.758C65.5822 542.594 61.6808 546.534 56.8442 546.558C52.0076 546.582 48.0674 542.681 48.0434 537.844C48.0194 533.008 51.9208 529.067 56.7574 529.044C61.594 529.02 65.5342 532.921 65.5582 537.758Z" fill="white" fill-opacity="0.15"/>
<path d="M64.5582 438.758C64.5822 443.594 60.6808 447.534 55.8442 447.558C51.0076 447.582 47.0674 443.681 47.0434 438.844C47.0194 434.008 50.9208 430.067 55.7574 430.044C60.594 430.02 64.5342 433.921 64.5582 438.758Z" fill="white" fill-opacity="0.15"/>
<path d="M65.9566 737.429C65.9806 742.266 62.0792 746.206 57.2426 746.23C52.406 746.254 48.4658 742.353 48.4418 737.516C48.4179 732.68 52.3193 728.739 57.1558 728.715C61.9924 728.691 65.9327 732.593 65.9566 737.429Z" fill="white" fill-opacity="0.15"/>
<path d="M65.9566 241.143C65.9806 245.979 62.0792 249.92 57.2426 249.944C52.406 249.968 48.4658 246.066 48.4418 241.23C48.4179 236.393 52.3193 232.453 57.1558 232.429C61.9924 232.405 65.9327 236.306 65.9566 241.143Z" fill="white" fill-opacity="0.15"/>
<path d="M65.9566 141.007C65.9806 145.844 62.0792 149.784 57.2426 149.808C52.406 149.832 48.4658 145.93 48.4418 141.094C48.4179 136.257 52.3193 132.317 57.1558 132.293C61.9924 132.269 65.9327 136.17 65.9566 141.007Z" fill="white" fill-opacity="0.15"/>
<path d="M65.5582 44.7575C65.5822 49.5941 61.6808 53.5344 56.8442 53.5583C52.0076 53.5823 48.0674 49.6809 48.0434 44.8443C48.0194 40.0077 51.9208 36.0675 56.7574 36.0435C61.594 36.0196 65.5342 39.9209 65.5582 44.7575Z" fill="white" fill-opacity="0.15"/>
<path d="M384.558 935.944C384.582 940.781 380.681 944.721 375.844 944.745C371.008 944.769 367.067 940.867 367.043 936.031C367.019 931.194 370.921 927.254 375.757 927.23C380.594 927.206 384.534 931.107 384.558 935.944Z" fill="white" fill-opacity="0.15"/>
<path d="M596.957 935.944C596.981 940.781 593.079 944.721 588.243 944.745C583.406 944.769 579.466 940.867 579.442 936.031C579.418 931.194 583.319 927.254 588.156 927.23C592.992 927.206 596.933 931.107 596.957 935.944Z" fill="white" fill-opacity="0.15"/>
<path d="M596.957 1034.76C596.981 1039.59 593.079 1043.53 588.243 1043.56C583.406 1043.58 579.466 1039.68 579.442 1034.84C579.418 1030.01 583.319 1026.07 588.156 1026.04C592.992 1026.02 596.933 1029.92 596.957 1034.76Z" fill="white" fill-opacity="0.15"/>
<path d="M596.957 835.808C596.981 840.645 593.079 844.585 588.243 844.609C583.406 844.633 579.466 840.732 579.442 835.895C579.418 831.059 583.319 827.118 588.156 827.094C592.992 827.07 596.933 830.972 596.957 835.808Z" fill="white" fill-opacity="0.15"/>
<path d="M596.957 737.429C596.981 742.266 593.079 746.206 588.243 746.23C583.406 746.254 579.466 742.353 579.442 737.516C579.418 732.68 583.319 728.739 588.156 728.715C592.992 728.691 596.933 732.593 596.957 737.429Z" fill="white" fill-opacity="0.15"/>
<path d="M596.558 638.199C596.582 643.036 592.681 646.976 587.844 647C583.008 647.024 579.067 643.122 579.043 638.286C579.019 633.449 582.921 629.509 587.757 629.485C592.594 629.461 596.534 633.362 596.558 638.199Z" fill="white" fill-opacity="0.15"/>
<path d="M596.957 538.037C596.981 542.873 593.079 546.814 588.243 546.838C583.406 546.862 579.466 542.96 579.442 538.124C579.418 533.287 583.319 529.347 588.156 529.323C592.992 529.299 596.933 533.2 596.957 538.037Z" fill="white" fill-opacity="0.15"/>
<path d="M596.957 440.536C596.981 445.372 593.079 449.313 588.243 449.337C583.406 449.361 579.466 445.459 579.442 440.623C579.418 435.786 583.319 431.846 588.156 431.822C592.992 431.798 596.933 435.699 596.957 440.536Z" fill="white" fill-opacity="0.15"/>
<path d="M596.957 340.4C596.981 345.237 593.079 349.177 588.243 349.201C583.406 349.225 579.466 345.323 579.442 340.487C579.418 335.65 583.319 331.71 588.156 331.686C592.992 331.662 596.933 335.564 596.957 340.4Z" fill="white" fill-opacity="0.15"/>
<path d="M596.957 241.143C596.981 245.979 593.079 249.92 588.243 249.944C583.406 249.968 579.466 246.066 579.442 241.23C579.418 236.393 583.319 232.453 588.156 232.429C592.992 232.405 596.933 236.306 596.957 241.143Z" fill="white" fill-opacity="0.15"/>
<path d="M596.957 141.007C596.981 145.844 593.079 149.784 588.243 149.808C583.406 149.832 579.466 145.93 579.442 141.094C579.418 136.257 583.319 132.317 588.156 132.293C592.992 132.269 596.933 136.17 596.957 141.007Z" fill="white" fill-opacity="0.15"/>
<path d="M596.558 44.7575C596.582 49.5941 592.681 53.5344 587.844 53.5583C583.008 53.5823 579.067 49.6809 579.043 44.8443C579.019 40.0077 582.921 36.0675 587.757 36.0435C592.594 36.0196 596.534 39.9209 596.558 44.7575Z" fill="white" fill-opacity="0.15"/>
<path d="M702.957 935.944C702.981 940.781 699.079 944.721 694.243 944.745C689.406 944.769 685.466 940.867 685.442 936.031C685.418 931.194 689.319 927.254 694.156 927.23C698.992 927.206 702.933 931.107 702.957 935.944Z" fill="white" fill-opacity="0.15"/>
<path d="M702.957 1034.76C702.981 1039.59 699.079 1043.53 694.243 1043.56C689.406 1043.58 685.466 1039.68 685.442 1034.84C685.418 1030.01 689.319 1026.07 694.156 1026.04C698.992 1026.02 702.933 1029.92 702.957 1034.76Z" fill="white" fill-opacity="0.15"/>
<path d="M702.957 835.808C702.981 840.645 699.079 844.585 694.243 844.609C689.406 844.633 685.466 840.732 685.442 835.895C685.418 831.059 689.319 827.118 694.156 827.094C698.992 827.07 702.933 830.972 702.957 835.808Z" fill="white" fill-opacity="0.15"/>
<path d="M702.957 737.429C702.981 742.266 699.079 746.206 694.243 746.23C689.406 746.254 685.466 742.353 685.442 737.516C685.418 732.68 689.319 728.739 694.156 728.715C698.992 728.691 702.933 732.593 702.957 737.429Z" fill="white" fill-opacity="0.15"/>
<path d="M702.558 638.199C702.582 643.036 698.681 646.976 693.844 647C689.008 647.024 685.067 643.122 685.043 638.286C685.019 633.449 688.921 629.509 693.757 629.485C698.594 629.461 702.534 633.362 702.558 638.199Z" fill="white" fill-opacity="0.15"/>
<path d="M702.957 538.037C702.981 542.873 699.079 546.814 694.243 546.838C689.406 546.862 685.466 542.96 685.442 538.124C685.418 533.287 689.319 529.347 694.156 529.323C698.992 529.299 702.933 533.2 702.957 538.037Z" fill="white" fill-opacity="0.15"/>
<path d="M702.957 440.536C702.981 445.372 699.079 449.313 694.243 449.337C689.406 449.361 685.466 445.459 685.442 440.623C685.418 435.786 689.319 431.846 694.156 431.822C698.992 431.798 702.933 435.699 702.957 440.536Z" fill="white" fill-opacity="0.15"/>
<path d="M702.957 340.4C702.981 345.237 699.079 349.177 694.243 349.201C689.406 349.225 685.466 345.323 685.442 340.487C685.418 335.65 689.319 331.71 694.156 331.686C698.992 331.662 702.933 335.564 702.957 340.4Z" fill="white" fill-opacity="0.15"/>
<path d="M702.957 241.143C702.981 245.979 699.079 249.92 694.243 249.944C689.406 249.968 685.466 246.066 685.442 241.23C685.418 236.393 689.319 232.453 694.156 232.429C698.992 232.405 702.933 236.306 702.957 241.143Z" fill="white" fill-opacity="0.15"/>
<path d="M702.957 141.007C702.981 145.844 699.079 149.784 694.243 149.808C689.406 149.832 685.466 145.93 685.442 141.094C685.418 136.257 689.319 132.317 694.156 132.293C698.992 132.269 702.933 136.17 702.957 141.007Z" fill="white" fill-opacity="0.15"/>
<path d="M702.558 44.7575C702.582 49.5941 698.681 53.5344 693.844 53.5583C689.008 53.5823 685.067 49.6809 685.043 44.8443C685.019 40.0077 688.921 36.0675 693.757 36.0435C698.594 36.0196 702.534 39.9209 702.558 44.7575Z" fill="white" fill-opacity="0.15"/>
<path d="M809.957 1034.76C809.981 1039.59 806.079 1043.53 801.243 1043.56C796.406 1043.58 792.466 1039.68 792.442 1034.84C792.418 1030.01 796.319 1026.07 801.156 1026.04C805.992 1026.02 809.933 1029.92 809.957 1034.76Z" fill="white" fill-opacity="0.15"/>
<path d="M809.957 835.808C809.981 840.645 806.079 844.585 801.243 844.609C796.406 844.633 792.466 840.732 792.442 835.895C792.418 831.059 796.319 827.118 801.156 827.094C805.992 827.07 809.933 830.972 809.957 835.808Z" fill="white" fill-opacity="0.15"/>
<path d="M809.957 737.429C809.981 742.266 806.079 746.206 801.243 746.23C796.406 746.254 792.466 742.353 792.442 737.516C792.418 732.68 796.319 728.739 801.156 728.715C805.992 728.691 809.933 732.593 809.957 737.429Z" fill="white" fill-opacity="0.15"/>
<path d="M809.558 638.199C809.582 643.036 805.681 646.976 800.844 647C796.008 647.024 792.067 643.122 792.043 638.286C792.019 633.449 795.921 629.509 800.757 629.485C805.594 629.461 809.534 633.362 809.558 638.199Z" fill="white" fill-opacity="0.15"/>
<path d="M809.957 538.037C809.981 542.873 806.079 546.814 801.243 546.838C796.406 546.862 792.466 542.96 792.442 538.124C792.418 533.287 796.319 529.347 801.156 529.323C805.992 529.299 809.933 533.2 809.957 538.037Z" fill="white" fill-opacity="0.15"/>
<path d="M809.957 440.536C809.981 445.372 806.079 449.313 801.243 449.337C796.406 449.361 792.466 445.459 792.442 440.623C792.418 435.786 796.319 431.846 801.156 431.822C805.992 431.798 809.933 435.699 809.957 440.536Z" fill="white" fill-opacity="0.15"/>
<path d="M809.957 340.4C809.981 345.237 806.079 349.177 801.243 349.201C796.406 349.225 792.466 345.323 792.442 340.487C792.418 335.65 796.319 331.71 801.156 331.686C805.992 331.662 809.933 335.564 809.957 340.4Z" fill="white" fill-opacity="0.15"/>
<path d="M809.957 241.143C809.981 245.979 806.079 249.92 801.243 249.944C796.406 249.968 792.466 246.066 792.442 241.23C792.418 236.393 796.319 232.453 801.156 232.429C805.992 232.405 809.933 236.306 809.957 241.143Z" fill="white" fill-opacity="0.15"/>
<path d="M809.957 141.007C809.981 145.844 806.079 149.784 801.243 149.808C796.406 149.832 792.466 145.93 792.442 141.094C792.418 136.257 796.319 132.317 801.156 132.293C805.992 132.269 809.933 136.17 809.957 141.007Z" fill="white" fill-opacity="0.15"/>
<path d="M809.558 44.7575C809.582 49.5941 805.681 53.5344 800.844 53.5583C796.008 53.5823 792.067 49.6809 792.043 44.8443C792.019 40.0077 795.921 36.0675 800.757 36.0435C805.594 36.0196 809.534 39.9209 809.558 44.7575Z" fill="white" fill-opacity="0.15"/>
<path d="M915.957 935.944C915.981 940.781 912.079 944.721 907.243 944.745C902.406 944.769 898.466 940.867 898.442 936.031C898.418 931.194 902.319 927.254 907.156 927.23C911.992 927.206 915.933 931.107 915.957 935.944Z" fill="white" fill-opacity="0.15"/>
<path d="M915.957 1034.76C915.981 1039.59 912.079 1043.53 907.243 1043.56C902.406 1043.58 898.466 1039.68 898.442 1034.84C898.418 1030.01 902.319 1026.07 907.156 1026.04C911.992 1026.02 915.933 1029.92 915.957 1034.76Z" fill="white" fill-opacity="0.15"/>
<path d="M915.957 835.808C915.981 840.645 912.079 844.585 907.243 844.609C902.406 844.633 898.466 840.732 898.442 835.895C898.418 831.059 902.319 827.118 907.156 827.094C911.992 827.07 915.933 830.972 915.957 835.808Z" fill="white" fill-opacity="0.15"/>
<path d="M915.957 737.429C915.981 742.266 912.079 746.206 907.243 746.23C902.406 746.254 898.466 742.353 898.442 737.516C898.418 732.68 902.319 728.739 907.156 728.715C911.992 728.691 915.933 732.593 915.957 737.429Z" fill="white" fill-opacity="0.15"/>
<path d="M915.558 638.199C915.582 643.036 911.681 646.976 906.844 647C902.008 647.024 898.067 643.122 898.043 638.286C898.019 633.449 901.921 629.509 906.757 629.485C911.594 629.461 915.534 633.362 915.558 638.199Z" fill="white" fill-opacity="0.15"/>
<path d="M915.957 538.037C915.981 542.873 912.079 546.814 907.243 546.838C902.406 546.862 898.466 542.96 898.442 538.124C898.418 533.287 902.319 529.347 907.156 529.323C911.992 529.299 915.933 533.2 915.957 538.037Z" fill="white" fill-opacity="0.15"/>
<path d="M915.957 440.536C915.981 445.372 912.079 449.313 907.243 449.337C902.406 449.361 898.466 445.459 898.442 440.623C898.418 435.786 902.319 431.846 907.156 431.822C911.992 431.798 915.933 435.699 915.957 440.536Z" fill="white" fill-opacity="0.15"/>
<path d="M915.957 340.4C915.981 345.237 912.079 349.177 907.243 349.201C902.406 349.225 898.466 345.323 898.442 340.487C898.418 335.65 902.319 331.71 907.156 331.686C911.992 331.662 915.933 335.564 915.957 340.4Z" fill="white" fill-opacity="0.15"/>
<path d="M915.957 241.143C915.981 245.979 912.079 249.92 907.243 249.944C902.406 249.968 898.466 246.066 898.442 241.23C898.418 236.393 902.319 232.453 907.156 232.429C911.992 232.405 915.933 236.306 915.957 241.143Z" fill="white" fill-opacity="0.15"/>
<path d="M915.957 141.007C915.981 145.844 912.079 149.784 907.243 149.808C902.406 149.832 898.466 145.93 898.442 141.094C898.418 136.257 902.319 132.317 907.156 132.293C911.992 132.269 915.933 136.17 915.957 141.007Z" fill="white" fill-opacity="0.15"/>
<path d="M915.558 44.7575C915.582 49.5941 911.681 53.5344 906.844 53.5583C902.008 53.5823 898.067 49.6809 898.043 44.8443C898.019 40.0077 901.921 36.0675 906.757 36.0435C911.594 36.0196 915.534 39.9209 915.558 44.7575Z" fill="white" fill-opacity="0.15"/>
<path d="M809.558 935.944C809.582 940.781 805.681 944.721 800.844 944.745C796.008 944.769 792.067 940.867 792.043 936.031C792.019 931.194 795.921 927.254 800.757 927.23C805.594 927.206 809.534 931.107 809.558 935.944Z" fill="white" fill-opacity="0.15"/>
<path d="M809.957 1034.76C809.981 1039.59 806.079 1043.53 801.243 1043.56C796.406 1043.58 792.466 1039.68 792.442 1034.84C792.418 1030.01 796.319 1026.07 801.156 1026.04C805.992 1026.02 809.933 1029.92 809.957 1034.76Z" fill="white" fill-opacity="0.15"/>
<path d="M915.957 935.944C915.981 940.781 912.079 944.721 907.243 944.745C902.406 944.769 898.466 940.867 898.442 936.031C898.418 931.194 902.319 927.254 907.156 927.23C911.992 927.206 915.933 931.107 915.957 935.944Z" fill="white" fill-opacity="0.15"/>
<path d="M915.957 1034.76C915.981 1039.59 912.079 1043.53 907.243 1043.56C902.406 1043.58 898.466 1039.68 898.442 1034.84C898.418 1030.01 902.319 1026.07 907.156 1026.04C911.992 1026.02 915.933 1029.92 915.957 1034.76Z" fill="white" fill-opacity="0.15"/>
<path d="M1021.96 935.944C1021.98 940.781 1018.08 944.721 1013.24 944.745C1008.41 944.769 1004.47 940.867 1004.44 936.031C1004.42 931.194 1008.32 927.254 1013.16 927.23C1017.99 927.206 1021.93 931.107 1021.96 935.944Z" fill="white" fill-opacity="0.15"/>
<path d="M1021.96 1034.76C1021.98 1039.59 1018.08 1043.53 1013.24 1043.56C1008.41 1043.58 1004.47 1039.68 1004.44 1034.84C1004.42 1030.01 1008.32 1026.07 1013.16 1026.04C1017.99 1026.02 1021.93 1029.92 1021.96 1034.76Z" fill="white" fill-opacity="0.15"/>
<path d="M1021.96 835.808C1021.98 840.645 1018.08 844.585 1013.24 844.609C1008.41 844.633 1004.47 840.732 1004.44 835.895C1004.42 831.059 1008.32 827.118 1013.16 827.094C1017.99 827.07 1021.93 830.972 1021.96 835.808Z" fill="white" fill-opacity="0.15"/>
<path d="M1021.96 737.429C1021.98 742.266 1018.08 746.206 1013.24 746.23C1008.41 746.254 1004.47 742.353 1004.44 737.516C1004.42 732.68 1008.32 728.739 1013.16 728.715C1017.99 728.691 1021.93 732.593 1021.96 737.429Z" fill="white" fill-opacity="0.15"/>
<path d="M1021.56 638.199C1021.58 643.036 1017.68 646.976 1012.84 647C1008.01 647.024 1004.07 643.122 1004.04 638.286C1004.02 633.449 1007.92 629.509 1012.76 629.485C1017.59 629.461 1021.53 633.362 1021.56 638.199Z" fill="white" fill-opacity="0.15"/>
<path d="M1021.96 538.037C1021.98 542.873 1018.08 546.814 1013.24 546.838C1008.41 546.862 1004.47 542.96 1004.44 538.124C1004.42 533.287 1008.32 529.347 1013.16 529.323C1017.99 529.299 1021.93 533.2 1021.96 538.037Z" fill="white" fill-opacity="0.15"/>
<path d="M1021.96 440.536C1021.98 445.372 1018.08 449.313 1013.24 449.337C1008.41 449.361 1004.47 445.459 1004.44 440.623C1004.42 435.786 1008.32 431.846 1013.16 431.822C1017.99 431.798 1021.93 435.699 1021.96 440.536Z" fill="white" fill-opacity="0.15"/>
<path d="M1021.96 340.4C1021.98 345.237 1018.08 349.177 1013.24 349.201C1008.41 349.225 1004.47 345.323 1004.44 340.487C1004.42 335.65 1008.32 331.71 1013.16 331.686C1017.99 331.662 1021.93 335.564 1021.96 340.4Z" fill="white" fill-opacity="0.15"/>
<path d="M1021.96 241.143C1021.98 245.979 1018.08 249.92 1013.24 249.944C1008.41 249.968 1004.47 246.066 1004.44 241.23C1004.42 236.393 1008.32 232.453 1013.16 232.429C1017.99 232.405 1021.93 236.306 1021.96 241.143Z" fill="white" fill-opacity="0.15"/>
<path d="M1021.96 141.007C1021.98 145.844 1018.08 149.784 1013.24 149.808C1008.41 149.832 1004.47 145.93 1004.44 141.094C1004.42 136.257 1008.32 132.317 1013.16 132.293C1017.99 132.269 1021.93 136.17 1021.96 141.007Z" fill="white" fill-opacity="0.15"/>
<path d="M1021.56 44.7575C1021.58 49.5941 1017.68 53.5344 1012.84 53.5583C1008.01 53.5823 1004.07 49.6809 1004.04 44.8443C1004.02 40.0077 1007.92 36.0675 1012.76 36.0435C1017.59 36.0196 1021.53 39.9209 1021.56 44.7575Z" fill="white" fill-opacity="0.15"/>
<path d="M1127.96 935.944C1127.98 940.781 1124.08 944.721 1119.24 944.745C1114.41 944.769 1110.47 940.867 1110.44 936.031C1110.42 931.194 1114.32 927.254 1119.16 927.23C1123.99 927.206 1127.93 931.107 1127.96 935.944Z" fill="white" fill-opacity="0.15"/>
<path d="M1127.96 1034.76C1127.98 1039.59 1124.08 1043.53 1119.24 1043.56C1114.41 1043.58 1110.47 1039.68 1110.44 1034.84C1110.42 1030.01 1114.32 1026.07 1119.16 1026.04C1123.99 1026.02 1127.93 1029.92 1127.96 1034.76Z" fill="white" fill-opacity="0.15"/>
<path d="M1127.96 835.808C1127.98 840.645 1124.08 844.585 1119.24 844.609C1114.41 844.633 1110.47 840.732 1110.44 835.895C1110.42 831.059 1114.32 827.118 1119.16 827.094C1123.99 827.07 1127.93 830.972 1127.96 835.808Z" fill="white" fill-opacity="0.15"/>
<path d="M1127.96 737.429C1127.98 742.266 1124.08 746.206 1119.24 746.23C1114.41 746.254 1110.47 742.353 1110.44 737.516C1110.42 732.68 1114.32 728.739 1119.16 728.715C1123.99 728.691 1127.93 732.593 1127.96 737.429Z" fill="white" fill-opacity="0.15"/>
<path d="M1127.56 638.199C1127.58 643.036 1123.68 646.976 1118.84 647C1114.01 647.024 1110.07 643.122 1110.04 638.286C1110.02 633.449 1113.92 629.509 1118.76 629.485C1123.59 629.461 1127.53 633.362 1127.56 638.199Z" fill="white" fill-opacity="0.15"/>
<path d="M1127.96 538.037C1127.98 542.873 1124.08 546.814 1119.24 546.838C1114.41 546.862 1110.47 542.96 1110.44 538.124C1110.42 533.287 1114.32 529.347 1119.16 529.323C1123.99 529.299 1127.93 533.2 1127.96 538.037Z" fill="white" fill-opacity="0.15"/>
<path d="M1127.96 440.536C1127.98 445.372 1124.08 449.313 1119.24 449.337C1114.41 449.361 1110.47 445.459 1110.44 440.623C1110.42 435.786 1114.32 431.846 1119.16 431.822C1123.99 431.798 1127.93 435.699 1127.96 440.536Z" fill="white" fill-opacity="0.15"/>
<path d="M1127.96 340.4C1127.98 345.237 1124.08 349.177 1119.24 349.201C1114.41 349.225 1110.47 345.323 1110.44 340.487C1110.42 335.65 1114.32 331.71 1119.16 331.686C1123.99 331.662 1127.93 335.564 1127.96 340.4Z" fill="white" fill-opacity="0.15"/>
<path d="M1127.96 241.143C1127.98 245.979 1124.08 249.92 1119.24 249.944C1114.41 249.968 1110.47 246.066 1110.44 241.23C1110.42 236.393 1114.32 232.453 1119.16 232.429C1123.99 232.405 1127.93 236.306 1127.96 241.143Z" fill="white" fill-opacity="0.15"/>
<path d="M1127.96 141.007C1127.98 145.844 1124.08 149.784 1119.24 149.808C1114.41 149.832 1110.47 145.93 1110.44 141.094C1110.42 136.257 1114.32 132.317 1119.16 132.293C1123.99 132.269 1127.93 136.17 1127.96 141.007Z" fill="white" fill-opacity="0.15"/>
<path d="M1127.56 44.7575C1127.58 49.5941 1123.68 53.5344 1118.84 53.5583C1114.01 53.5823 1110.07 49.6809 1110.04 44.8443C1110.02 40.0077 1113.92 36.0675 1118.76 36.0435C1123.59 36.0196 1127.53 39.9209 1127.56 44.7575Z" fill="white" fill-opacity="0.15"/>
<path d="M1234.96 1034.76C1234.98 1039.59 1231.08 1043.53 1226.24 1043.56C1221.41 1043.58 1217.47 1039.68 1217.44 1034.84C1217.42 1030.01 1221.32 1026.07 1226.16 1026.04C1230.99 1026.02 1234.93 1029.92 1234.96 1034.76Z" fill="white" fill-opacity="0.15"/>
<path d="M1234.96 835.808C1234.98 840.645 1231.08 844.585 1226.24 844.609C1221.41 844.633 1217.47 840.732 1217.44 835.895C1217.42 831.059 1221.32 827.118 1226.16 827.094C1230.99 827.07 1234.93 830.972 1234.96 835.808Z" fill="white" fill-opacity="0.15"/>
<path d="M1234.96 737.429C1234.98 742.266 1231.08 746.206 1226.24 746.23C1221.41 746.254 1217.47 742.353 1217.44 737.516C1217.42 732.68 1221.32 728.739 1226.16 728.715C1230.99 728.691 1234.93 732.593 1234.96 737.429Z" fill="white" fill-opacity="0.15"/>
<path d="M1234.56 638.199C1234.58 643.036 1230.68 646.976 1225.84 647C1221.01 647.024 1217.07 643.122 1217.04 638.286C1217.02 633.449 1220.92 629.509 1225.76 629.485C1230.59 629.461 1234.53 633.362 1234.56 638.199Z" fill="white" fill-opacity="0.15"/>
<path d="M1234.96 538.037C1234.98 542.873 1231.08 546.814 1226.24 546.838C1221.41 546.862 1217.47 542.96 1217.44 538.124C1217.42 533.287 1221.32 529.347 1226.16 529.323C1230.99 529.299 1234.93 533.2 1234.96 538.037Z" fill="white" fill-opacity="0.15"/>
<path d="M1234.96 440.536C1234.98 445.372 1231.08 449.313 1226.24 449.337C1221.41 449.361 1217.47 445.459 1217.44 440.623C1217.42 435.786 1221.32 431.846 1226.16 431.822C1230.99 431.798 1234.93 435.699 1234.96 440.536Z" fill="white" fill-opacity="0.15"/>
<path d="M1234.96 340.4C1234.98 345.237 1231.08 349.177 1226.24 349.201C1221.41 349.225 1217.47 345.323 1217.44 340.487C1217.42 335.65 1221.32 331.71 1226.16 331.686C1230.99 331.662 1234.93 335.564 1234.96 340.4Z" fill="white" fill-opacity="0.15"/>
<path d="M1234.96 241.143C1234.98 245.979 1231.08 249.92 1226.24 249.944C1221.41 249.968 1217.47 246.066 1217.44 241.23C1217.42 236.393 1221.32 232.453 1226.16 232.429C1230.99 232.405 1234.93 236.306 1234.96 241.143Z" fill="white" fill-opacity="0.15"/>
<path d="M1234.96 141.007C1234.98 145.844 1231.08 149.784 1226.24 149.808C1221.41 149.832 1217.47 145.93 1217.44 141.094C1217.42 136.257 1221.32 132.317 1226.16 132.293C1230.99 132.269 1234.93 136.17 1234.96 141.007Z" fill="white" fill-opacity="0.15"/>
<path d="M1234.56 44.7575C1234.58 49.5941 1230.68 53.5344 1225.84 53.5583C1221.01 53.5823 1217.07 49.6809 1217.04 44.8443C1217.02 40.0077 1220.92 36.0675 1225.76 36.0435C1230.59 36.0196 1234.53 39.9209 1234.56 44.7575Z" fill="white" fill-opacity="0.15"/>
<path d="M1340.96 935.944C1340.98 940.781 1337.08 944.721 1332.24 944.745C1327.41 944.769 1323.47 940.867 1323.44 936.031C1323.42 931.194 1327.32 927.254 1332.16 927.23C1336.99 927.206 1340.93 931.107 1340.96 935.944Z" fill="white" fill-opacity="0.15"/>
<path d="M1340.96 1034.76C1340.98 1039.59 1337.08 1043.53 1332.24 1043.56C1327.41 1043.58 1323.47 1039.68 1323.44 1034.84C1323.42 1030.01 1327.32 1026.07 1332.16 1026.04C1336.99 1026.02 1340.93 1029.92 1340.96 1034.76Z" fill="white" fill-opacity="0.15"/>
<path d="M1340.96 835.808C1340.98 840.645 1337.08 844.585 1332.24 844.609C1327.41 844.633 1323.47 840.732 1323.44 835.895C1323.42 831.059 1327.32 827.118 1332.16 827.094C1336.99 827.07 1340.93 830.972 1340.96 835.808Z" fill="white" fill-opacity="0.15"/>
<path d="M1340.96 737.429C1340.98 742.266 1337.08 746.206 1332.24 746.23C1327.41 746.254 1323.47 742.353 1323.44 737.516C1323.42 732.68 1327.32 728.739 1332.16 728.715C1336.99 728.691 1340.93 732.593 1340.96 737.429Z" fill="white" fill-opacity="0.15"/>
<path d="M1340.56 638.199C1340.58 643.036 1336.68 646.976 1331.84 647C1327.01 647.024 1323.07 643.122 1323.04 638.286C1323.02 633.449 1326.92 629.509 1331.76 629.485C1336.59 629.461 1340.53 633.362 1340.56 638.199Z" fill="white" fill-opacity="0.15"/>
<path d="M1340.96 538.037C1340.98 542.873 1337.08 546.814 1332.24 546.838C1327.41 546.862 1323.47 542.96 1323.44 538.124C1323.42 533.287 1327.32 529.347 1332.16 529.323C1336.99 529.299 1340.93 533.2 1340.96 538.037Z" fill="white" fill-opacity="0.15"/>
<path d="M1340.96 440.536C1340.98 445.372 1337.08 449.313 1332.24 449.337C1327.41 449.361 1323.47 445.459 1323.44 440.623C1323.42 435.786 1327.32 431.846 1332.16 431.822C1336.99 431.798 1340.93 435.699 1340.96 440.536Z" fill="white" fill-opacity="0.15"/>
<path d="M1340.96 340.4C1340.98 345.237 1337.08 349.177 1332.24 349.201C1327.41 349.225 1323.47 345.323 1323.44 340.487C1323.42 335.65 1327.32 331.71 1332.16 331.686C1336.99 331.662 1340.93 335.564 1340.96 340.4Z" fill="white" fill-opacity="0.15"/>
<path d="M1340.96 241.143C1340.98 245.979 1337.08 249.92 1332.24 249.944C1327.41 249.968 1323.47 246.066 1323.44 241.23C1323.42 236.393 1327.32 232.453 1332.16 232.429C1336.99 232.405 1340.93 236.306 1340.96 241.143Z" fill="white" fill-opacity="0.15"/>
<path d="M1340.96 141.007C1340.98 145.844 1337.08 149.784 1332.24 149.808C1327.41 149.832 1323.47 145.93 1323.44 141.094C1323.42 136.257 1327.32 132.317 1332.16 132.293C1336.99 132.269 1340.93 136.17 1340.96 141.007Z" fill="white" fill-opacity="0.15"/>
<path d="M1340.56 44.7575C1340.58 49.5941 1336.68 53.5344 1331.84 53.5583C1327.01 53.5823 1323.07 49.6809 1323.04 44.8443C1323.02 40.0077 1326.92 36.0675 1331.76 36.0435C1336.59 36.0196 1340.53 39.9209 1340.56 44.7575Z" fill="white" fill-opacity="0.15"/>
<path d="M1021.96 935.944C1021.98 940.781 1018.08 944.721 1013.24 944.745C1008.41 944.769 1004.47 940.867 1004.44 936.031C1004.42 931.194 1008.32 927.254 1013.16 927.23C1017.99 927.206 1021.93 931.107 1021.96 935.944Z" fill="white" fill-opacity="0.15"/>
<path d="M1021.96 1034.76C1021.98 1039.59 1018.08 1043.53 1013.24 1043.56C1008.41 1043.58 1004.47 1039.68 1004.44 1034.84C1004.42 1030.01 1008.32 1026.07 1013.16 1026.04C1017.99 1026.02 1021.93 1029.92 1021.96 1034.76Z" fill="white" fill-opacity="0.15"/>
<path d="M1021.96 835.808C1021.98 840.645 1018.08 844.585 1013.24 844.609C1008.41 844.633 1004.47 840.732 1004.44 835.895C1004.42 831.059 1008.32 827.118 1013.16 827.094C1017.99 827.07 1021.93 830.972 1021.96 835.808Z" fill="white" fill-opacity="0.15"/>
<path d="M1127.96 935.944C1127.98 940.781 1124.08 944.721 1119.24 944.745C1114.41 944.769 1110.47 940.867 1110.44 936.031C1110.42 931.194 1114.32 927.254 1119.16 927.23C1123.99 927.206 1127.93 931.107 1127.96 935.944Z" fill="white" fill-opacity="0.15"/>
<path d="M1127.96 1034.76C1127.98 1039.59 1124.08 1043.53 1119.24 1043.56C1114.41 1043.58 1110.47 1039.68 1110.44 1034.84C1110.42 1030.01 1114.32 1026.07 1119.16 1026.04C1123.99 1026.02 1127.93 1029.92 1127.96 1034.76Z" fill="white" fill-opacity="0.15"/>
<path d="M1127.96 835.808C1127.98 840.645 1124.08 844.585 1119.24 844.609C1114.41 844.633 1110.47 840.732 1110.44 835.895C1110.42 831.059 1114.32 827.118 1119.16 827.094C1123.99 827.07 1127.93 830.972 1127.96 835.808Z" fill="white" fill-opacity="0.15"/>
<path d="M1127.96 737.429C1127.98 742.266 1124.08 746.206 1119.24 746.23C1114.41 746.254 1110.47 742.353 1110.44 737.516C1110.42 732.68 1114.32 728.739 1119.16 728.715C1123.99 728.691 1127.93 732.593 1127.96 737.429Z" fill="white" fill-opacity="0.15"/>
<path d="M1234.96 1034.76C1234.98 1039.59 1231.08 1043.53 1226.24 1043.56C1221.41 1043.58 1217.47 1039.68 1217.44 1034.84C1217.42 1030.01 1221.32 1026.07 1226.16 1026.04C1230.99 1026.02 1234.93 1029.92 1234.96 1034.76Z" fill="white" fill-opacity="0.15"/>
<path d="M1234.96 835.808C1234.98 840.645 1231.08 844.585 1226.24 844.609C1221.41 844.633 1217.47 840.732 1217.44 835.895C1217.42 831.059 1221.32 827.118 1226.16 827.094C1230.99 827.07 1234.93 830.972 1234.96 835.808Z" fill="white" fill-opacity="0.15"/>
<path d="M1234.56 937.758C1234.58 942.594 1230.68 946.534 1225.84 946.558C1221.01 946.582 1217.07 942.681 1217.04 937.844C1217.02 933.008 1220.92 929.067 1225.76 929.044C1230.59 929.02 1234.53 932.921 1234.56 937.758Z" fill="white" fill-opacity="0.15"/>
<path d="M1234.96 737.429C1234.98 742.266 1231.08 746.206 1226.24 746.23C1221.41 746.254 1217.47 742.353 1217.44 737.516C1217.42 732.68 1221.32 728.739 1226.16 728.715C1230.99 728.691 1234.93 732.593 1234.96 737.429Z" fill="white" fill-opacity="0.15"/>
<path d="M1234.56 638.199C1234.58 643.036 1230.68 646.976 1225.84 647C1221.01 647.024 1217.07 643.122 1217.04 638.286C1217.02 633.449 1220.92 629.509 1225.76 629.485C1230.59 629.461 1234.53 633.362 1234.56 638.199Z" fill="white" fill-opacity="0.15"/>
<path d="M1340.96 935.944C1340.98 940.781 1337.08 944.721 1332.24 944.745C1327.41 944.769 1323.47 940.867 1323.44 936.031C1323.42 931.194 1327.32 927.254 1332.16 927.23C1336.99 927.206 1340.93 931.107 1340.96 935.944Z" fill="white" fill-opacity="0.15"/>
<path d="M1340.96 1034.76C1340.98 1039.59 1337.08 1043.53 1332.24 1043.56C1327.41 1043.58 1323.47 1039.68 1323.44 1034.84C1323.42 1030.01 1327.32 1026.07 1332.16 1026.04C1336.99 1026.02 1340.93 1029.92 1340.96 1034.76Z" fill="white" fill-opacity="0.15"/>
<path d="M1340.96 835.808C1340.98 840.645 1337.08 844.585 1332.24 844.609C1327.41 844.633 1323.47 840.732 1323.44 835.895C1323.42 831.059 1327.32 827.118 1332.16 827.094C1336.99 827.07 1340.93 830.972 1340.96 835.808Z" fill="white" fill-opacity="0.15"/>
<path d="M1340.96 737.429C1340.98 742.266 1337.08 746.206 1332.24 746.23C1327.41 746.254 1323.47 742.353 1323.44 737.516C1323.42 732.68 1327.32 728.739 1332.16 728.715C1336.99 728.691 1340.93 732.593 1340.96 737.429Z" fill="white" fill-opacity="0.15"/>
<path d="M1340.56 638.199C1340.58 643.036 1336.68 646.976 1331.84 647C1327.01 647.024 1323.07 643.122 1323.04 638.286C1323.02 633.449 1326.92 629.509 1331.76 629.485C1336.59 629.461 1340.53 633.362 1340.56 638.199Z" fill="white" fill-opacity="0.15"/>
<path d="M1340.96 538.037C1340.98 542.873 1337.08 546.814 1332.24 546.838C1327.41 546.862 1323.47 542.96 1323.44 538.124C1323.42 533.287 1327.32 529.347 1332.16 529.323C1336.99 529.299 1340.93 533.2 1340.96 538.037Z" fill="white" fill-opacity="0.15"/>
<path d="M1446.96 935.944C1446.98 940.781 1443.08 944.721 1438.24 944.745C1433.41 944.769 1429.47 940.867 1429.44 936.031C1429.42 931.194 1433.32 927.254 1438.16 927.23C1442.99 927.206 1446.93 931.107 1446.96 935.944Z" fill="white" fill-opacity="0.15"/>
<path d="M1446.96 1034.76C1446.98 1039.59 1443.08 1043.53 1438.24 1043.56C1433.41 1043.58 1429.47 1039.68 1429.44 1034.84C1429.42 1030.01 1433.32 1026.07 1438.16 1026.04C1442.99 1026.02 1446.93 1029.92 1446.96 1034.76Z" fill="white" fill-opacity="0.15"/>
<path d="M1446.96 835.808C1446.98 840.645 1443.08 844.585 1438.24 844.609C1433.41 844.633 1429.47 840.732 1429.44 835.895C1429.42 831.059 1433.32 827.118 1438.16 827.094C1442.99 827.07 1446.93 830.972 1446.96 835.808Z" fill="white" fill-opacity="0.15"/>
<path d="M1446.96 737.429C1446.98 742.266 1443.08 746.206 1438.24 746.23C1433.41 746.254 1429.47 742.353 1429.44 737.516C1429.42 732.68 1433.32 728.739 1438.16 728.715C1442.99 728.691 1446.93 732.593 1446.96 737.429Z" fill="white" fill-opacity="0.15"/>
<path d="M1446.56 638.199C1446.58 643.036 1442.68 646.976 1437.84 647C1433.01 647.024 1429.07 643.122 1429.04 638.286C1429.02 633.449 1432.92 629.509 1437.76 629.485C1442.59 629.461 1446.53 633.362 1446.56 638.199Z" fill="white" fill-opacity="0.15"/>
<path d="M1446.96 538.037C1446.98 542.873 1443.08 546.814 1438.24 546.838C1433.41 546.862 1429.47 542.96 1429.44 538.124C1429.42 533.287 1433.32 529.347 1438.16 529.323C1442.99 529.299 1446.93 533.2 1446.96 538.037Z" fill="white" fill-opacity="0.15"/>
<path d="M1446.96 440.536C1446.98 445.372 1443.08 449.313 1438.24 449.337C1433.41 449.361 1429.47 445.459 1429.44 440.623C1429.42 435.786 1433.32 431.846 1438.16 431.822C1442.99 431.798 1446.93 435.699 1446.96 440.536Z" fill="white" fill-opacity="0.15"/>
<path d="M1446.96 340.4C1446.98 345.237 1443.08 349.177 1438.24 349.201C1433.41 349.225 1429.47 345.323 1429.44 340.487C1429.42 335.65 1433.32 331.71 1438.16 331.686C1442.99 331.662 1446.93 335.564 1446.96 340.4Z" fill="white" fill-opacity="0.15"/>
<path d="M1446.96 241.143C1446.98 245.979 1443.08 249.92 1438.24 249.944C1433.41 249.968 1429.47 246.066 1429.44 241.23C1429.42 236.393 1433.32 232.453 1438.16 232.429C1442.99 232.405 1446.93 236.306 1446.96 241.143Z" fill="white" fill-opacity="0.15"/>
<path d="M1446.96 141.007C1446.98 145.844 1443.08 149.784 1438.24 149.808C1433.41 149.832 1429.47 145.93 1429.44 141.094C1429.42 136.257 1433.32 132.317 1438.16 132.293C1442.99 132.269 1446.93 136.17 1446.96 141.007Z" fill="white" fill-opacity="0.15"/>
<path d="M1446.56 44.7575C1446.58 49.5941 1442.68 53.5344 1437.84 53.5583C1433.01 53.5823 1429.07 49.6809 1429.04 44.8443C1429.02 40.0077 1432.92 36.0675 1437.76 36.0435C1442.59 36.0196 1446.53 39.9209 1446.56 44.7575Z" fill="white" fill-opacity="0.15"/>
<path d="M1552.96 935.944C1552.98 940.781 1549.08 944.721 1544.24 944.745C1539.41 944.769 1535.47 940.867 1535.44 936.031C1535.42 931.194 1539.32 927.254 1544.16 927.23C1548.99 927.206 1552.93 931.107 1552.96 935.944Z" fill="white" fill-opacity="0.15"/>
<path d="M1552.96 1034.76C1552.98 1039.59 1549.08 1043.53 1544.24 1043.56C1539.41 1043.58 1535.47 1039.68 1535.44 1034.84C1535.42 1030.01 1539.32 1026.07 1544.16 1026.04C1548.99 1026.02 1552.93 1029.92 1552.96 1034.76Z" fill="white" fill-opacity="0.15"/>
<path d="M1552.96 835.808C1552.98 840.645 1549.08 844.585 1544.24 844.609C1539.41 844.633 1535.47 840.732 1535.44 835.895C1535.42 831.059 1539.32 827.118 1544.16 827.094C1548.99 827.07 1552.93 830.972 1552.96 835.808Z" fill="white" fill-opacity="0.15"/>
<path d="M1552.96 737.429C1552.98 742.266 1549.08 746.206 1544.24 746.23C1539.41 746.254 1535.47 742.353 1535.44 737.516C1535.42 732.68 1539.32 728.739 1544.16 728.715C1548.99 728.691 1552.93 732.593 1552.96 737.429Z" fill="white" fill-opacity="0.15"/>
<path d="M1552.56 638.199C1552.58 643.036 1548.68 646.976 1543.84 647C1539.01 647.024 1535.07 643.122 1535.04 638.286C1535.02 633.449 1538.92 629.509 1543.76 629.485C1548.59 629.461 1552.53 633.362 1552.56 638.199Z" fill="white" fill-opacity="0.15"/>
<path d="M1552.96 538.037C1552.98 542.873 1549.08 546.814 1544.24 546.838C1539.41 546.862 1535.47 542.96 1535.44 538.124C1535.42 533.287 1539.32 529.347 1544.16 529.323C1548.99 529.299 1552.93 533.2 1552.96 538.037Z" fill="white" fill-opacity="0.15"/>
<path d="M1552.96 440.536C1552.98 445.372 1549.08 449.313 1544.24 449.337C1539.41 449.361 1535.47 445.459 1535.44 440.623C1535.42 435.786 1539.32 431.846 1544.16 431.822C1548.99 431.798 1552.93 435.699 1552.96 440.536Z" fill="white" fill-opacity="0.15"/>
<path d="M1552.96 340.4C1552.98 345.237 1549.08 349.177 1544.24 349.201C1539.41 349.225 1535.47 345.323 1535.44 340.487C1535.42 335.65 1539.32 331.71 1544.16 331.686C1548.99 331.662 1552.93 335.564 1552.96 340.4Z" fill="white" fill-opacity="0.15"/>
<path d="M1552.96 241.143C1552.98 245.979 1549.08 249.92 1544.24 249.944C1539.41 249.968 1535.47 246.066 1535.44 241.23C1535.42 236.393 1539.32 232.453 1544.16 232.429C1548.99 232.405 1552.93 236.306 1552.96 241.143Z" fill="white" fill-opacity="0.15"/>
<path d="M1552.96 141.007C1552.98 145.844 1549.08 149.784 1544.24 149.808C1539.41 149.832 1535.47 145.93 1535.44 141.094C1535.42 136.257 1539.32 132.317 1544.16 132.293C1548.99 132.269 1552.93 136.17 1552.96 141.007Z" fill="white" fill-opacity="0.15"/>
<path d="M1552.56 44.7575C1552.58 49.5941 1548.68 53.5344 1543.84 53.5583C1539.01 53.5823 1535.07 49.6809 1535.04 44.8443C1535.02 40.0077 1538.92 36.0675 1543.76 36.0435C1548.59 36.0196 1552.53 39.9209 1552.56 44.7575Z" fill="white" fill-opacity="0.15"/>
<path d="M1659.96 1034.76C1659.98 1039.59 1656.08 1043.53 1651.24 1043.56C1646.41 1043.58 1642.47 1039.68 1642.44 1034.84C1642.42 1030.01 1646.32 1026.07 1651.16 1026.04C1655.99 1026.02 1659.93 1029.92 1659.96 1034.76Z" fill="white" fill-opacity="0.15"/>
<path d="M1659.96 835.808C1659.98 840.645 1656.08 844.585 1651.24 844.609C1646.41 844.633 1642.47 840.732 1642.44 835.895C1642.42 831.059 1646.32 827.118 1651.16 827.094C1655.99 827.07 1659.93 830.972 1659.96 835.808Z" fill="white" fill-opacity="0.15"/>
<path d="M1659.96 737.429C1659.98 742.266 1656.08 746.206 1651.24 746.23C1646.41 746.254 1642.47 742.353 1642.44 737.516C1642.42 732.68 1646.32 728.739 1651.16 728.715C1655.99 728.691 1659.93 732.593 1659.96 737.429Z" fill="white" fill-opacity="0.15"/>
<path d="M1659.56 638.199C1659.58 643.036 1655.68 646.976 1650.84 647C1646.01 647.024 1642.07 643.122 1642.04 638.286C1642.02 633.449 1645.92 629.509 1650.76 629.485C1655.59 629.461 1659.53 633.362 1659.56 638.199Z" fill="white" fill-opacity="0.15"/>
<path d="M1659.96 538.037C1659.98 542.873 1656.08 546.814 1651.24 546.838C1646.41 546.862 1642.47 542.96 1642.44 538.124C1642.42 533.287 1646.32 529.347 1651.16 529.323C1655.99 529.299 1659.93 533.2 1659.96 538.037Z" fill="white" fill-opacity="0.15"/>
<path d="M1659.96 440.536C1659.98 445.372 1656.08 449.313 1651.24 449.337C1646.41 449.361 1642.47 445.459 1642.44 440.623C1642.42 435.786 1646.32 431.846 1651.16 431.822C1655.99 431.798 1659.93 435.699 1659.96 440.536Z" fill="white" fill-opacity="0.15"/>
<path d="M1659.96 340.4C1659.98 345.237 1656.08 349.177 1651.24 349.201C1646.41 349.225 1642.47 345.323 1642.44 340.487C1642.42 335.65 1646.32 331.71 1651.16 331.686C1655.99 331.662 1659.93 335.564 1659.96 340.4Z" fill="white" fill-opacity="0.15"/>
<path d="M1659.96 241.143C1659.98 245.979 1656.08 249.92 1651.24 249.944C1646.41 249.968 1642.47 246.066 1642.44 241.23C1642.42 236.393 1646.32 232.453 1651.16 232.429C1655.99 232.405 1659.93 236.306 1659.96 241.143Z" fill="white" fill-opacity="0.15"/>
<path d="M1659.96 141.007C1659.98 145.844 1656.08 149.784 1651.24 149.808C1646.41 149.832 1642.47 145.93 1642.44 141.094C1642.42 136.257 1646.32 132.317 1651.16 132.293C1655.99 132.269 1659.93 136.17 1659.96 141.007Z" fill="white" fill-opacity="0.15"/>
<path d="M1659.56 44.7575C1659.58 49.5941 1655.68 53.5344 1650.84 53.5583C1646.01 53.5823 1642.07 49.6809 1642.04 44.8443C1642.02 40.0077 1645.92 36.0675 1650.76 36.0435C1655.59 36.0196 1659.53 39.9209 1659.56 44.7575Z" fill="white" fill-opacity="0.15"/>
<path d="M1765.96 935.944C1765.98 940.781 1762.08 944.721 1757.24 944.745C1752.41 944.769 1748.47 940.867 1748.44 936.031C1748.42 931.194 1752.32 927.254 1757.16 927.23C1761.99 927.206 1765.93 931.107 1765.96 935.944Z" fill="white" fill-opacity="0.15"/>
<path d="M1765.96 1034.76C1765.98 1039.59 1762.08 1043.53 1757.24 1043.56C1752.41 1043.58 1748.47 1039.68 1748.44 1034.84C1748.42 1030.01 1752.32 1026.07 1757.16 1026.04C1761.99 1026.02 1765.93 1029.92 1765.96 1034.76Z" fill="white" fill-opacity="0.15"/>
<path d="M1765.96 835.808C1765.98 840.645 1762.08 844.585 1757.24 844.609C1752.41 844.633 1748.47 840.732 1748.44 835.895C1748.42 831.059 1752.32 827.118 1757.16 827.094C1761.99 827.07 1765.93 830.972 1765.96 835.808Z" fill="white" fill-opacity="0.15"/>
<path d="M1765.96 737.429C1765.98 742.266 1762.08 746.206 1757.24 746.23C1752.41 746.254 1748.47 742.353 1748.44 737.516C1748.42 732.68 1752.32 728.739 1757.16 728.715C1761.99 728.691 1765.93 732.593 1765.96 737.429Z" fill="white" fill-opacity="0.15"/>
<path d="M1765.56 638.199C1765.58 643.036 1761.68 646.976 1756.84 647C1752.01 647.024 1748.07 643.122 1748.04 638.286C1748.02 633.449 1751.92 629.509 1756.76 629.485C1761.59 629.461 1765.53 633.362 1765.56 638.199Z" fill="white" fill-opacity="0.15"/>
<path d="M1765.96 538.037C1765.98 542.873 1762.08 546.814 1757.24 546.838C1752.41 546.862 1748.47 542.96 1748.44 538.124C1748.42 533.287 1752.32 529.347 1757.16 529.323C1761.99 529.299 1765.93 533.2 1765.96 538.037Z" fill="white" fill-opacity="0.15"/>
<path d="M1765.96 440.536C1765.98 445.372 1762.08 449.313 1757.24 449.337C1752.41 449.361 1748.47 445.459 1748.44 440.623C1748.42 435.786 1752.32 431.846 1757.16 431.822C1761.99 431.798 1765.93 435.699 1765.96 440.536Z" fill="white" fill-opacity="0.15"/>
<path d="M1765.96 340.4C1765.98 345.237 1762.08 349.177 1757.24 349.201C1752.41 349.225 1748.47 345.323 1748.44 340.487C1748.42 335.65 1752.32 331.71 1757.16 331.686C1761.99 331.662 1765.93 335.564 1765.96 340.4Z" fill="white" fill-opacity="0.15"/>
<path d="M1765.96 241.143C1765.98 245.979 1762.08 249.92 1757.24 249.944C1752.41 249.968 1748.47 246.066 1748.44 241.23C1748.42 236.393 1752.32 232.453 1757.16 232.429C1761.99 232.405 1765.93 236.306 1765.96 241.143Z" fill="white" fill-opacity="0.15"/>
<path d="M1765.96 141.007C1765.98 145.844 1762.08 149.784 1757.24 149.808C1752.41 149.832 1748.47 145.93 1748.44 141.094C1748.42 136.257 1752.32 132.317 1757.16 132.293C1761.99 132.269 1765.93 136.17 1765.96 141.007Z" fill="white" fill-opacity="0.15"/>
<path d="M1765.56 44.7575C1765.58 49.5941 1761.68 53.5344 1756.84 53.5583C1752.01 53.5823 1748.07 49.6809 1748.04 44.8443C1748.02 40.0077 1751.92 36.0675 1756.76 36.0435C1761.59 36.0196 1765.53 39.9209 1765.56 44.7575Z" fill="white" fill-opacity="0.15"/>
<path d="M1446.96 935.944C1446.98 940.781 1443.08 944.721 1438.24 944.745C1433.41 944.769 1429.47 940.867 1429.44 936.031C1429.42 931.194 1433.32 927.254 1438.16 927.23C1442.99 927.206 1446.93 931.107 1446.96 935.944Z" fill="white" fill-opacity="0.15"/>
<path d="M1446.96 1034.76C1446.98 1039.59 1443.08 1043.53 1438.24 1043.56C1433.41 1043.58 1429.47 1039.68 1429.44 1034.84C1429.42 1030.01 1433.32 1026.07 1438.16 1026.04C1442.99 1026.02 1446.93 1029.92 1446.96 1034.76Z" fill="white" fill-opacity="0.15"/>
<path d="M1446.96 835.808C1446.98 840.645 1443.08 844.585 1438.24 844.609C1433.41 844.633 1429.47 840.732 1429.44 835.895C1429.42 831.059 1433.32 827.118 1438.16 827.094C1442.99 827.07 1446.93 830.972 1446.96 835.808Z" fill="white" fill-opacity="0.15"/>
<path d="M1446.96 737.429C1446.98 742.266 1443.08 746.206 1438.24 746.23C1433.41 746.254 1429.47 742.353 1429.44 737.516C1429.42 732.68 1433.32 728.739 1438.16 728.715C1442.99 728.691 1446.93 732.593 1446.96 737.429Z" fill="white" fill-opacity="0.15"/>
<path d="M1446.56 638.199C1446.58 643.036 1442.68 646.976 1437.84 647C1433.01 647.024 1429.07 643.122 1429.04 638.286C1429.02 633.449 1432.92 629.509 1437.76 629.485C1442.59 629.461 1446.53 633.362 1446.56 638.199Z" fill="white" fill-opacity="0.15"/>
<path d="M1446.96 538.037C1446.98 542.873 1443.08 546.814 1438.24 546.838C1433.41 546.862 1429.47 542.96 1429.44 538.124C1429.42 533.287 1433.32 529.347 1438.16 529.323C1442.99 529.299 1446.93 533.2 1446.96 538.037Z" fill="white" fill-opacity="0.15"/>
<path d="M1446.96 440.536C1446.98 445.372 1443.08 449.313 1438.24 449.337C1433.41 449.361 1429.47 445.459 1429.44 440.623C1429.42 435.786 1433.32 431.846 1438.16 431.822C1442.99 431.798 1446.93 435.699 1446.96 440.536Z" fill="white" fill-opacity="0.15"/>
<path d="M1552.96 935.944C1552.98 940.781 1549.08 944.721 1544.24 944.745C1539.41 944.769 1535.47 940.867 1535.44 936.031C1535.42 931.194 1539.32 927.254 1544.16 927.23C1548.99 927.206 1552.93 931.107 1552.96 935.944Z" fill="white" fill-opacity="0.15"/>
<path d="M1552.96 1034.76C1552.98 1039.59 1549.08 1043.53 1544.24 1043.56C1539.41 1043.58 1535.47 1039.68 1535.44 1034.84C1535.42 1030.01 1539.32 1026.07 1544.16 1026.04C1548.99 1026.02 1552.93 1029.92 1552.96 1034.76Z" fill="white" fill-opacity="0.15"/>
<path d="M1552.96 835.808C1552.98 840.645 1549.08 844.585 1544.24 844.609C1539.41 844.633 1535.47 840.732 1535.44 835.895C1535.42 831.059 1539.32 827.118 1544.16 827.094C1548.99 827.07 1552.93 830.972 1552.96 835.808Z" fill="white" fill-opacity="0.15"/>
<path d="M1552.96 737.429C1552.98 742.266 1549.08 746.206 1544.24 746.23C1539.41 746.254 1535.47 742.353 1535.44 737.516C1535.42 732.68 1539.32 728.739 1544.16 728.715C1548.99 728.691 1552.93 732.593 1552.96 737.429Z" fill="white" fill-opacity="0.15"/>
<path d="M1552.56 638.199C1552.58 643.036 1548.68 646.976 1543.84 647C1539.01 647.024 1535.07 643.122 1535.04 638.286C1535.02 633.449 1538.92 629.509 1543.76 629.485C1548.59 629.461 1552.53 633.362 1552.56 638.199Z" fill="white" fill-opacity="0.15"/>
<path d="M1552.96 538.037C1552.98 542.873 1549.08 546.814 1544.24 546.838C1539.41 546.862 1535.47 542.96 1535.44 538.124C1535.42 533.287 1539.32 529.347 1544.16 529.323C1548.99 529.299 1552.93 533.2 1552.96 538.037Z" fill="white" fill-opacity="0.15"/>
<path d="M1552.96 440.536C1552.98 445.372 1549.08 449.313 1544.24 449.337C1539.41 449.361 1535.47 445.459 1535.44 440.623C1535.42 435.786 1539.32 431.846 1544.16 431.822C1548.99 431.798 1552.93 435.699 1552.96 440.536Z" fill="white" fill-opacity="0.15"/>
<path d="M1659.96 1034.76C1659.98 1039.59 1656.08 1043.53 1651.24 1043.56C1646.41 1043.58 1642.47 1039.68 1642.44 1034.84C1642.42 1030.01 1646.32 1026.07 1651.16 1026.04C1655.99 1026.02 1659.93 1029.92 1659.96 1034.76Z" fill="white" fill-opacity="0.15"/>
<path d="M1659.56 935.758C1659.58 940.594 1655.68 944.534 1650.84 944.558C1646.01 944.582 1642.07 940.681 1642.04 935.844C1642.02 931.008 1645.92 927.067 1650.76 927.044C1655.59 927.02 1659.53 930.921 1659.56 935.758Z" fill="white" fill-opacity="0.15"/>
<path d="M1659.96 835.808C1659.98 840.645 1656.08 844.585 1651.24 844.609C1646.41 844.633 1642.47 840.732 1642.44 835.895C1642.42 831.059 1646.32 827.118 1651.16 827.094C1655.99 827.07 1659.93 830.972 1659.96 835.808Z" fill="white" fill-opacity="0.15"/>
<path d="M1659.96 737.429C1659.98 742.266 1656.08 746.206 1651.24 746.23C1646.41 746.254 1642.47 742.353 1642.44 737.516C1642.42 732.68 1646.32 728.739 1651.16 728.715C1655.99 728.691 1659.93 732.593 1659.96 737.429Z" fill="white" fill-opacity="0.15"/>
<path d="M1659.56 638.199C1659.58 643.036 1655.68 646.976 1650.84 647C1646.01 647.024 1642.07 643.122 1642.04 638.286C1642.02 633.449 1645.92 629.509 1650.76 629.485C1655.59 629.461 1659.53 633.362 1659.56 638.199Z" fill="white" fill-opacity="0.15"/>
<path d="M1659.96 538.037C1659.98 542.873 1656.08 546.814 1651.24 546.838C1646.41 546.862 1642.47 542.96 1642.44 538.124C1642.42 533.287 1646.32 529.347 1651.16 529.323C1655.99 529.299 1659.93 533.2 1659.96 538.037Z" fill="white" fill-opacity="0.15"/>
<path d="M1659.96 440.536C1659.98 445.372 1656.08 449.313 1651.24 449.337C1646.41 449.361 1642.47 445.459 1642.44 440.623C1642.42 435.786 1646.32 431.846 1651.16 431.822C1655.99 431.798 1659.93 435.699 1659.96 440.536Z" fill="white" fill-opacity="0.15"/>
<path d="M1659.96 340.4C1659.98 345.237 1656.08 349.177 1651.24 349.201C1646.41 349.225 1642.47 345.323 1642.44 340.487C1642.42 335.65 1646.32 331.71 1651.16 331.686C1655.99 331.662 1659.93 335.564 1659.96 340.4Z" fill="white" fill-opacity="0.15"/>
<path d="M1659.96 241.143C1659.98 245.979 1656.08 249.92 1651.24 249.944C1646.41 249.968 1642.47 246.066 1642.44 241.23C1642.42 236.393 1646.32 232.453 1651.16 232.429C1655.99 232.405 1659.93 236.306 1659.96 241.143Z" fill="white" fill-opacity="0.15"/>
<path d="M1765.96 935.944C1765.98 940.781 1762.08 944.721 1757.24 944.745C1752.41 944.769 1748.47 940.867 1748.44 936.031C1748.42 931.194 1752.32 927.254 1757.16 927.23C1761.99 927.206 1765.93 931.107 1765.96 935.944Z" fill="white" fill-opacity="0.15"/>
<path d="M1765.96 1034.76C1765.98 1039.59 1762.08 1043.53 1757.24 1043.56C1752.41 1043.58 1748.47 1039.68 1748.44 1034.84C1748.42 1030.01 1752.32 1026.07 1757.16 1026.04C1761.99 1026.02 1765.93 1029.92 1765.96 1034.76Z" fill="white" fill-opacity="0.15"/>
<path d="M1765.96 835.808C1765.98 840.645 1762.08 844.585 1757.24 844.609C1752.41 844.633 1748.47 840.732 1748.44 835.895C1748.42 831.059 1752.32 827.118 1757.16 827.094C1761.99 827.07 1765.93 830.972 1765.96 835.808Z" fill="white" fill-opacity="0.15"/>
<path d="M1765.96 737.429C1765.98 742.266 1762.08 746.206 1757.24 746.23C1752.41 746.254 1748.47 742.353 1748.44 737.516C1748.42 732.68 1752.32 728.739 1757.16 728.715C1761.99 728.691 1765.93 732.593 1765.96 737.429Z" fill="white" fill-opacity="0.15"/>
<path d="M1765.56 638.199C1765.58 643.036 1761.68 646.976 1756.84 647C1752.01 647.024 1748.07 643.122 1748.04 638.286C1748.02 633.449 1751.92 629.509 1756.76 629.485C1761.59 629.461 1765.53 633.362 1765.56 638.199Z" fill="white" fill-opacity="0.15"/>
<path d="M1765.96 538.037C1765.98 542.873 1762.08 546.814 1757.24 546.838C1752.41 546.862 1748.47 542.96 1748.44 538.124C1748.42 533.287 1752.32 529.347 1757.16 529.323C1761.99 529.299 1765.93 533.2 1765.96 538.037Z" fill="white" fill-opacity="0.15"/>
<path d="M1765.96 440.536C1765.98 445.372 1762.08 449.313 1757.24 449.337C1752.41 449.361 1748.47 445.459 1748.44 440.623C1748.42 435.786 1752.32 431.846 1757.16 431.822C1761.99 431.798 1765.93 435.699 1765.96 440.536Z" fill="white" fill-opacity="0.15"/>
<path d="M1765.96 340.4C1765.98 345.237 1762.08 349.177 1757.24 349.201C1752.41 349.225 1748.47 345.323 1748.44 340.487C1748.42 335.65 1752.32 331.71 1757.16 331.686C1761.99 331.662 1765.93 335.564 1765.96 340.4Z" fill="white" fill-opacity="0.15"/>
<path d="M1765.96 241.143C1765.98 245.979 1762.08 249.92 1757.24 249.944C1752.41 249.968 1748.47 246.066 1748.44 241.23C1748.42 236.393 1752.32 232.453 1757.16 232.429C1761.99 232.405 1765.93 236.306 1765.96 241.143Z" fill="white" fill-opacity="0.15"/>
<path d="M1765.96 141.007C1765.98 145.844 1762.08 149.784 1757.24 149.808C1752.41 149.832 1748.47 145.93 1748.44 141.094C1748.42 136.257 1752.32 132.317 1757.16 132.293C1761.99 132.269 1765.93 136.17 1765.96 141.007Z" fill="white" fill-opacity="0.15"/>
<path d="M588 1109.99L629.742 1095.37C671.363 1080.62 754.848 1051.39 820.184 1002.86C885.781 954.329 933.21 886.754 992.529 831.352C1051.71 776.077 1122.64 733.102 1180 675.845C1237.51 618.46 1281.32 546.921 1344.62 495.88C1407.9 445.098 1490.42 414.811 1549.84 359.8C1609.4 304.662 1645.48 224.664 1705.04 169.526C1764.46 114.516 1846.98 84.2284 1888.36 69.2168L1929.62 54.0732L2122.8 265.529L2092.77 292.963C2062.73 320.398 2002.67 375.267 1942.89 429.881C1882.97 484.623 1823.46 538.981 1763.54 593.723C1703.76 648.337 1643.7 703.206 1583.92 757.82C1523.99 812.562 1464.49 866.921 1404.57 921.662C1344.79 976.276 1284.72 1031.15 1224.94 1085.76C1165.02 1140.5 1105.52 1194.86 1045.59 1249.6C985.812 1304.22 925.75 1359.08 895.719 1386.52L865.688 1413.95L588 1109.99Z" fill="#DADADA"/>
<path d="M802.692 1162.44L827.431 1134.63C852.058 1106.69 901.538 1051.07 964.414 1010.62C1027.42 970.058 1103.69 944.785 1159.81 896.687C1215.69 848.583 1251.18 777.646 1296.01 717.438C1340.96 657.115 1395.12 607.637 1454.97 563.615C1514.57 519.585 1579.84 481.251 1636.85 434.381C1693.99 387.394 1742.96 332.235 1789.38 273.517C1835.67 214.915 1879.51 153.117 1901.32 122.095L1923.24 91.1958L2147.74 336.949L2120.41 361.92C2093.07 386.891 2038.41 436.834 1983.99 486.544C1929.45 536.371 1875.29 585.849 1820.75 635.676C1766.33 685.386 1711.66 735.329 1657.25 785.039C1602.71 834.866 1548.54 884.344 1494 934.17C1439.59 983.881 1384.92 1033.82 1330.5 1083.53C1275.96 1133.36 1221.8 1182.84 1167.26 1232.66C1112.84 1282.38 1058.18 1332.32 1030.84 1357.29L1003.51 1382.26L802.692 1162.44Z" fill="#C9C9C9"/>
<path d="M870 1220.02L905.609 1202.97C941.217 1185.91 1012.43 1151.81 1066.2 1099.12C1120.1 1046.31 1156.41 975.038 1206.75 918.336C1256.96 861.754 1321.07 819.858 1380.52 773.398C1440.23 726.949 1495.04 675.924 1549.77 624.024C1604.36 572.243 1658.51 519.446 1718.8 473.895C1779.21 428.224 1845.64 389.918 1900.84 338.537C1956.03 287.405 1999.98 223.447 2021.96 191.468L2043.93 159.49L2217.02 348.966L2189.12 374.455C2161.22 399.945 2105.42 450.925 2049.87 501.668C1994.2 552.53 1938.91 603.035 1883.24 653.897C1827.69 704.64 1771.89 755.62 1716.34 806.363C1660.67 857.224 1605.38 907.73 1549.71 958.591C1494.16 1009.33 1438.36 1060.31 1382.81 1111.06C1327.14 1161.92 1271.85 1212.42 1216.18 1263.29C1160.63 1314.03 1104.83 1365.01 1076.92 1390.5L1049.02 1415.99L870 1220.02Z" fill="#B9B9B9"/>
<path d="M1012.4 1349.84L1032.8 1316.39C1053.03 1282.74 1093.84 1215.84 1146.74 1162.68C1199.94 1109.6 1265.28 1070.59 1321.57 1020.88C1377.73 971.301 1424.72 911.154 1483.45 864.388C1542.31 817.503 1612.8 784.119 1666.86 731.977C1720.62 679.765 1757.99 609.101 1810.9 555.95C1864.1 502.868 1932.87 467.606 1999.79 429.548C2066.42 391.421 2131.25 350.804 2163.49 330.308L2195.9 309.999L2322.86 448.968L2295.07 474.347C2267.29 499.726 2211.73 550.484 2156.43 601.006C2101 651.646 2045.95 701.932 1990.52 752.572C1935.22 803.094 1879.65 853.852 1824.35 904.374C1768.92 955.014 1713.87 1005.3 1658.44 1055.94C1603.14 1106.46 1547.58 1157.22 1492.27 1207.74C1436.84 1258.38 1381.8 1308.67 1326.37 1359.31C1271.06 1409.83 1215.5 1460.59 1187.72 1485.97L1159.94 1511.34L1012.4 1349.84Z" fill="#A9A9A9"/>
<path d="M1152.89 1255.05L1180.41 1236.83C1208.36 1219.09 1263.39 1182.66 1325.1 1153.98C1386.92 1125.21 1454.43 1103.34 1506.77 1064.18C1559 1025.12 1595.93 968.88 1646 927.465C1696.19 885.949 1759.39 859.363 1822.07 831.527C1884.21 803.322 1945.28 773.497 1966.04 700.002C1986.49 625.934 1966.95 508.771 2001.19 449.799C2035.31 390.93 2123.96 391.297 2167.86 391.009L2212.18 391.193L2423.36 622.354L2399.29 644.343C2375.22 666.332 2327.08 710.309 2279.16 754.083C2231.14 797.959 2183.44 841.527 2135.42 885.403C2087.5 929.176 2039.36 973.154 1991.44 1016.93C1943.42 1060.8 1895.72 1104.37 1847.7 1148.25C1799.78 1192.02 1751.64 1236 1703.73 1279.77C1655.7 1323.65 1608.01 1367.22 1559.98 1411.09C1512.06 1454.87 1463.92 1498.84 1439.85 1520.83L1415.78 1542.82L1152.89 1255.05Z" fill="#9A9A9A"/>
<path d="M1894.6 1076.52L1893.27 1076.52L1893.27 1069.56L1894.6 1069.56L1894.6 1072.26L1902 1072.26L1902 1073.83L1894.6 1073.83L1894.6 1076.52ZM1898.16 1066.74L1902 1066.74L1902 1068.29L1893.27 1068.29L1893.27 1066.78L1896.57 1066.78L1896.57 1066.7C1896.2 1066.55 1895.91 1066.31 1895.69 1065.99C1895.48 1065.66 1895.37 1065.25 1895.37 1064.75C1895.37 1064.3 1895.46 1063.9 1895.65 1063.56C1895.85 1063.23 1896.12 1062.96 1896.49 1062.78C1896.86 1062.59 1897.3 1062.5 1897.83 1062.5L1902 1062.5L1902 1064.04L1898.07 1064.04C1897.63 1064.04 1897.29 1064.15 1897.04 1064.38C1896.8 1064.61 1896.67 1064.92 1896.67 1065.33C1896.67 1065.6 1896.73 1065.85 1896.85 1066.06C1896.97 1066.27 1897.14 1066.44 1897.36 1066.56C1897.58 1066.68 1897.85 1066.74 1898.16 1066.74ZM1902.13 1058.03C1902.13 1058.68 1901.99 1059.25 1901.72 1059.73C1901.44 1060.2 1901.05 1060.57 1900.55 1060.82C1900.05 1061.08 1899.45 1061.21 1898.77 1061.21C1898.09 1061.21 1897.5 1061.08 1896.99 1060.82C1896.48 1060.57 1896.08 1060.2 1895.8 1059.74C1895.51 1059.28 1895.37 1058.73 1895.37 1058.11C1895.37 1057.71 1895.43 1057.33 1895.57 1056.97C1895.69 1056.61 1895.89 1056.29 1896.16 1056.01C1896.43 1055.73 1896.78 1055.52 1897.19 1055.36C1897.61 1055.2 1898.1 1055.12 1898.68 1055.12L1899.15 1055.12L1899.15 1060.48L1898.11 1060.48L1898.11 1056.6C1897.81 1056.6 1897.55 1056.66 1897.32 1056.79C1897.09 1056.91 1896.9 1057.09 1896.77 1057.31C1896.64 1057.53 1896.57 1057.79 1896.57 1058.09C1896.57 1058.4 1896.65 1058.68 1896.8 1058.92C1896.95 1059.16 1897.15 1059.34 1897.4 1059.48C1897.64 1059.61 1897.91 1059.67 1898.2 1059.68L1899.11 1059.68C1899.49 1059.68 1899.82 1059.61 1900.09 1059.47C1900.36 1059.33 1900.57 1059.13 1900.71 1058.88C1900.86 1058.63 1900.93 1058.34 1900.93 1058.01C1900.93 1057.78 1900.89 1057.58 1900.83 1057.4C1900.77 1057.22 1900.67 1057.06 1900.55 1056.92C1900.42 1056.79 1900.27 1056.69 1900.08 1056.62L1900.24 1055.18C1900.62 1055.27 1900.96 1055.45 1901.24 1055.7C1901.52 1055.95 1901.74 1056.28 1901.9 1056.67C1902.05 1057.07 1902.13 1057.52 1902.13 1058.03ZM1904.59 1047.99C1904.59 1048.54 1904.52 1049.02 1904.37 1049.42C1904.22 1049.81 1904.02 1050.13 1903.77 1050.38C1903.52 1050.62 1903.24 1050.79 1902.94 1050.88L1902.6 1049.49C1902.73 1049.43 1902.86 1049.34 1902.98 1049.22C1903.11 1049.1 1903.21 1048.94 1903.3 1048.74C1903.38 1048.53 1903.42 1048.27 1903.42 1047.96C1903.42 1047.53 1903.32 1047.16 1903.1 1046.88C1902.89 1046.59 1902.55 1046.45 1902.06 1046.45L1900.82 1046.45L1900.82 1046.52C1900.98 1046.6 1901.15 1046.72 1901.31 1046.87C1901.48 1047.02 1901.62 1047.22 1901.74 1047.47C1901.85 1047.72 1901.91 1048.03 1901.91 1048.41C1901.91 1048.91 1901.79 1049.37 1901.55 1049.78C1901.31 1050.18 1900.96 1050.51 1900.49 1050.75C1900.01 1050.99 1899.42 1051.1 1898.71 1051.1C1897.99 1051.1 1897.38 1050.99 1896.89 1050.75C1896.39 1050.51 1896.01 1050.18 1895.76 1049.77C1895.5 1049.36 1895.37 1048.91 1895.37 1048.4C1895.37 1048.02 1895.43 1047.7 1895.57 1047.46C1895.69 1047.21 1895.85 1047.01 1896.03 1046.86C1896.21 1046.71 1896.38 1046.6 1896.54 1046.52L1896.54 1046.44L1895.45 1046.44L1895.45 1044.92L1902.11 1044.92C1902.67 1044.92 1903.13 1045.05 1903.5 1045.32C1903.86 1045.58 1904.14 1045.95 1904.32 1046.41C1904.5 1046.88 1904.59 1047.4 1904.59 1047.99ZM1900.7 1047.98C1900.7 1047.65 1900.62 1047.37 1900.46 1047.14C1900.3 1046.91 1900.07 1046.74 1899.77 1046.62C1899.47 1046.5 1899.12 1046.44 1898.7 1046.44C1898.29 1046.44 1897.92 1046.5 1897.62 1046.62C1897.31 1046.73 1897.07 1046.91 1896.89 1047.14C1896.72 1047.36 1896.63 1047.64 1896.63 1047.98C1896.63 1048.32 1896.72 1048.61 1896.9 1048.84C1897.08 1049.07 1897.33 1049.24 1897.64 1049.36C1897.95 1049.47 1898.3 1049.53 1898.7 1049.53C1899.1 1049.53 1899.45 1049.47 1899.75 1049.36C1900.05 1049.24 1900.28 1049.06 1900.45 1048.83C1900.61 1048.6 1900.7 1048.31 1900.7 1047.98ZM1902 1043.34L1895.45 1043.34L1895.45 1041.84L1896.55 1041.84L1896.55 1041.77C1896.17 1041.65 1895.88 1041.45 1895.67 1041.16C1895.46 1040.87 1895.36 1040.53 1895.36 1040.16C1895.36 1040.07 1895.37 1039.98 1895.37 1039.87C1895.38 1039.76 1895.39 1039.67 1895.4 1039.6L1896.82 1039.6C1896.8 1039.67 1896.78 1039.77 1896.76 1039.91C1896.74 1040.05 1896.73 1040.19 1896.73 1040.32C1896.73 1040.6 1896.79 1040.85 1896.92 1041.08C1897.04 1041.3 1897.2 1041.47 1897.41 1041.6C1897.63 1041.73 1897.87 1041.79 1898.15 1041.79L1902 1041.79L1902 1043.34ZM1902.13 1035.95C1902.13 1036.61 1901.99 1037.17 1901.72 1037.65C1901.44 1038.12 1901.05 1038.49 1900.55 1038.75C1900.05 1039 1899.45 1039.13 1898.77 1039.13C1898.09 1039.13 1897.5 1039 1896.99 1038.75C1896.48 1038.49 1896.08 1038.13 1895.8 1037.66C1895.51 1037.2 1895.37 1036.66 1895.37 1036.03C1895.37 1035.63 1895.43 1035.25 1895.57 1034.89C1895.69 1034.53 1895.89 1034.21 1896.16 1033.93C1896.43 1033.66 1896.78 1033.44 1897.19 1033.28C1897.61 1033.12 1898.1 1033.04 1898.68 1033.04L1899.15 1033.04L1899.15 1038.4L1898.11 1038.4L1898.11 1034.52C1897.81 1034.52 1897.55 1034.59 1897.32 1034.71C1897.09 1034.84 1896.9 1035.01 1896.77 1035.23C1896.64 1035.46 1896.57 1035.71 1896.57 1036.01C1896.57 1036.33 1896.65 1036.6 1896.8 1036.84C1896.95 1037.08 1897.15 1037.27 1897.4 1037.4C1897.64 1037.53 1897.91 1037.6 1898.2 1037.6L1899.11 1037.6C1899.49 1037.6 1899.82 1037.53 1900.09 1037.39C1900.36 1037.25 1900.57 1037.06 1900.71 1036.81C1900.86 1036.56 1900.93 1036.26 1900.93 1035.93C1900.93 1035.7 1900.89 1035.5 1900.83 1035.32C1900.77 1035.14 1900.67 1034.98 1900.55 1034.85C1900.42 1034.71 1900.27 1034.61 1900.08 1034.54L1900.24 1033.1C1900.62 1033.19 1900.96 1033.37 1901.24 1033.62C1901.52 1033.88 1901.74 1034.2 1901.9 1034.6C1902.05 1034.99 1902.13 1035.44 1902.13 1035.95ZM1902.13 1029.85C1902.13 1030.27 1902.06 1030.64 1901.91 1030.97C1901.76 1031.3 1901.54 1031.56 1901.25 1031.76C1900.95 1031.95 1900.59 1032.04 1900.16 1032.04C1899.79 1032.04 1899.49 1031.97 1899.25 1031.84C1899.01 1031.7 1898.81 1031.51 1898.67 1031.28C1898.52 1031.04 1898.41 1030.78 1898.34 1030.48C1898.26 1030.18 1898.21 1029.88 1898.17 1029.56C1898.13 1029.17 1898.1 1028.86 1898.07 1028.62C1898.03 1028.39 1897.98 1028.21 1897.91 1028.1C1897.84 1027.99 1897.73 1027.94 1897.59 1027.94L1897.56 1027.94C1897.24 1027.94 1896.99 1028.03 1896.81 1028.22C1896.64 1028.41 1896.55 1028.69 1896.55 1029.05C1896.55 1029.42 1896.63 1029.72 1896.8 1029.94C1896.96 1030.16 1897.16 1030.31 1897.38 1030.39L1897.18 1031.83C1896.78 1031.71 1896.45 1031.53 1896.18 1031.27C1895.91 1031 1895.71 1030.69 1895.57 1030.31C1895.44 1029.93 1895.37 1029.51 1895.37 1029.05C1895.37 1028.74 1895.41 1028.43 1895.48 1028.11C1895.55 1027.8 1895.68 1027.51 1895.85 1027.26C1896.01 1027 1896.24 1026.79 1896.53 1026.63C1896.82 1026.47 1897.18 1026.4 1897.62 1026.4L1902 1026.4L1902 1027.88L1901.1 1027.88L1901.1 1027.93C1901.28 1028.02 1901.45 1028.16 1901.61 1028.33C1901.77 1028.49 1901.89 1028.7 1901.99 1028.96C1902.09 1029.21 1902.13 1029.51 1902.13 1029.85ZM1901 1029.45C1901 1029.14 1900.94 1028.87 1900.82 1028.65C1900.69 1028.42 1900.53 1028.24 1900.32 1028.12C1900.12 1028 1899.89 1027.93 1899.65 1027.93L1898.88 1027.93C1898.92 1027.98 1898.96 1028.06 1898.99 1028.18C1899.03 1028.29 1899.06 1028.42 1899.08 1028.56C1899.11 1028.71 1899.13 1028.85 1899.15 1028.99C1899.17 1029.13 1899.19 1029.25 1899.2 1029.35C1899.23 1029.58 1899.28 1029.78 1899.35 1029.97C1899.42 1030.15 1899.52 1030.29 1899.65 1030.4C1899.78 1030.5 1899.94 1030.55 1900.14 1030.55C1900.42 1030.55 1900.64 1030.45 1900.78 1030.24C1900.93 1030.04 1901 1029.77 1901 1029.45ZM1895.45 1021.58L1896.65 1021.58L1896.65 1025.34L1895.45 1025.34L1895.45 1021.58ZM1893.89 1024.41L1893.89 1022.87L1900.03 1022.87C1900.24 1022.87 1900.4 1022.84 1900.51 1022.77C1900.62 1022.71 1900.69 1022.62 1900.73 1022.52C1900.77 1022.41 1900.79 1022.3 1900.79 1022.17C1900.79 1022.07 1900.78 1021.98 1900.77 1021.9C1900.75 1021.82 1900.74 1021.76 1900.73 1021.72L1901.94 1021.46C1901.96 1021.54 1902 1021.66 1902.03 1021.81C1902.06 1021.96 1902.08 1022.15 1902.09 1022.36C1902.1 1022.75 1902.04 1023.1 1901.91 1023.41C1901.78 1023.72 1901.58 1023.96 1901.31 1024.15C1901.04 1024.32 1900.7 1024.41 1900.29 1024.41L1893.89 1024.41ZM1902 1015.96L1895.45 1017.81L1895.45 1016.24L1900.06 1015.08L1900.06 1015.02L1895.45 1013.85L1895.45 1012.29L1900.03 1011.12L1900.03 1011.05L1895.45 1009.92L1895.45 1008.34L1902 1010.2L1902 1011.8L1897.58 1013.03L1897.58 1013.12L1902 1014.35L1902 1015.96ZM1902.13 1005.38C1902.13 1005.8 1902.06 1006.17 1901.91 1006.5C1901.76 1006.83 1901.54 1007.09 1901.25 1007.29C1900.95 1007.48 1900.59 1007.57 1900.16 1007.57C1899.79 1007.57 1899.49 1007.5 1899.25 1007.37C1899.01 1007.23 1898.81 1007.05 1898.67 1006.81C1898.52 1006.57 1898.41 1006.31 1898.34 1006.01C1898.26 1005.71 1898.21 1005.41 1898.17 1005.09C1898.13 1004.7 1898.1 1004.39 1898.07 1004.16C1898.03 1003.92 1897.98 1003.74 1897.91 1003.64C1897.84 1003.52 1897.73 1003.47 1897.59 1003.47L1897.56 1003.47C1897.24 1003.47 1896.99 1003.56 1896.81 1003.75C1896.64 1003.94 1896.55 1004.22 1896.55 1004.58C1896.55 1004.95 1896.63 1005.25 1896.8 1005.48C1896.96 1005.69 1897.16 1005.84 1897.38 1005.92L1897.18 1007.36C1896.78 1007.25 1896.45 1007.06 1896.18 1006.8C1895.91 1006.54 1895.71 1006.22 1895.57 1005.84C1895.44 1005.46 1895.37 1005.04 1895.37 1004.59C1895.37 1004.27 1895.41 1003.96 1895.48 1003.64C1895.55 1003.33 1895.68 1003.05 1895.85 1002.79C1896.01 1002.53 1896.24 1002.32 1896.53 1002.17C1896.82 1002.01 1897.18 1001.93 1897.62 1001.93L1902 1001.93L1902 1003.41L1901.1 1003.41L1901.1 1003.46C1901.28 1003.55 1901.45 1003.69 1901.61 1003.86C1901.77 1004.02 1901.89 1004.24 1901.99 1004.49C1902.09 1004.74 1902.13 1005.04 1902.13 1005.38ZM1901 1004.98C1901 1004.67 1900.94 1004.4 1900.82 1004.18C1900.69 1003.95 1900.53 1003.77 1900.32 1003.65C1900.12 1003.53 1899.89 1003.46 1899.65 1003.46L1898.88 1003.46C1898.92 1003.51 1898.96 1003.6 1898.99 1003.71C1899.03 1003.83 1899.06 1003.95 1899.08 1004.1C1899.11 1004.24 1899.13 1004.38 1899.15 1004.52C1899.17 1004.66 1899.19 1004.78 1899.2 1004.88C1899.23 1005.11 1899.28 1005.32 1899.35 1005.5C1899.42 1005.68 1899.52 1005.82 1899.65 1005.93C1899.78 1006.03 1899.94 1006.09 1900.14 1006.09C1900.42 1006.09 1900.64 1005.98 1900.78 1005.77C1900.93 1005.57 1901 1005.3 1901 1004.98ZM1895.45 994.763L1902 997.094L1902 998.799L1895.45 1001.13L1895.45 999.485L1900.32 997.98L1900.32 997.912L1895.45 996.404L1895.45 994.763ZM1902.13 991.021C1902.13 991.677 1901.99 992.244 1901.72 992.721C1901.44 993.195 1901.05 993.56 1900.55 993.816C1900.05 994.072 1899.45 994.2 1898.77 994.2C1898.09 994.2 1897.5 994.072 1896.99 993.816C1896.48 993.558 1896.08 993.197 1895.8 992.734C1895.51 992.271 1895.37 991.727 1895.37 991.102C1895.37 990.698 1895.43 990.317 1895.57 989.96C1895.69 989.599 1895.89 989.281 1896.16 989.005C1896.43 988.727 1896.78 988.508 1897.19 988.349C1897.61 988.19 1898.1 988.11 1898.68 988.11L1899.15 988.11L1899.15 993.475L1898.11 993.475L1898.11 989.589C1897.81 989.592 1897.55 989.656 1897.32 989.781C1897.09 989.906 1896.9 990.08 1896.77 990.305C1896.64 990.526 1896.57 990.785 1896.57 991.08C1896.57 991.396 1896.65 991.673 1896.8 991.911C1896.95 992.15 1897.15 992.336 1897.4 992.469C1897.64 992.6 1897.91 992.667 1898.2 992.67L1899.11 992.67C1899.49 992.67 1899.82 992.6 1900.09 992.461C1900.36 992.322 1900.57 992.127 1900.71 991.877C1900.86 991.627 1900.93 991.335 1900.93 990.999C1900.93 990.775 1900.89 990.572 1900.83 990.39C1900.77 990.208 1900.67 990.05 1900.55 989.917C1900.42 989.783 1900.27 989.683 1900.08 989.614L1900.24 988.174C1900.62 988.265 1900.96 988.438 1901.24 988.694C1901.52 988.947 1901.74 989.271 1901.9 989.665C1902.05 990.06 1902.13 990.512 1902.13 991.021ZM1897.18 981.632L1897.34 983.038C1897.2 983.078 1897.06 983.147 1896.94 983.247C1896.81 983.343 1896.71 983.474 1896.63 983.639C1896.56 983.804 1896.52 984.005 1896.52 984.244C1896.52 984.565 1896.59 984.835 1896.73 985.054C1896.87 985.27 1897.05 985.376 1897.27 985.373C1897.46 985.376 1897.62 985.306 1897.73 985.164C1897.85 985.02 1897.95 984.781 1898.03 984.449L1898.27 983.332C1898.4 982.713 1898.61 982.252 1898.9 981.951C1899.19 981.647 1899.57 981.494 1900.04 981.491C1900.45 981.494 1900.82 981.615 1901.13 981.853C1901.44 982.089 1901.69 982.417 1901.86 982.838C1902.04 983.258 1902.13 983.741 1902.13 984.287C1902.13 985.088 1901.96 985.733 1901.62 986.221C1901.29 986.71 1900.82 987.001 1900.21 987.095L1900.07 985.591C1900.37 985.522 1900.59 985.377 1900.74 985.156C1900.89 984.934 1900.96 984.646 1900.96 984.291C1900.96 983.924 1900.89 983.63 1900.74 983.409C1900.59 983.184 1900.4 983.072 1900.18 983.072C1899.99 983.072 1899.84 983.145 1899.72 983.289C1899.59 983.431 1899.5 983.653 1899.43 983.954L1899.2 985.071C1899.07 985.699 1898.85 986.163 1898.54 986.464C1898.23 986.765 1897.83 986.914 1897.36 986.912C1896.95 986.914 1896.6 986.805 1896.31 986.583C1896.01 986.359 1895.78 986.048 1895.62 985.65C1895.45 985.25 1895.37 984.788 1895.37 984.265C1895.37 983.498 1895.53 982.895 1895.86 982.454C1896.19 982.011 1896.63 981.737 1897.18 981.632ZM1897.73 973.275L1899 973.275L1899 977.204L1897.73 977.204L1897.73 973.275ZM1902.12 966.247C1902.12 966.761 1901.98 967.222 1901.72 967.628C1901.45 968.034 1901.07 968.355 1900.57 968.591C1900.07 968.827 1899.45 968.945 1898.74 968.945C1898.01 968.945 1897.39 968.825 1896.89 968.587C1896.39 968.345 1896.01 968.02 1895.76 967.611C1895.5 967.202 1895.37 966.746 1895.37 966.243C1895.37 965.859 1895.43 965.544 1895.57 965.297C1895.69 965.05 1895.85 964.854 1896.03 964.709C1896.21 964.564 1896.38 964.452 1896.54 964.372L1896.54 964.308L1893.27 964.308L1893.27 962.761L1902 962.761L1902 964.278L1900.97 964.278L1900.97 964.372C1901.13 964.452 1901.3 964.567 1901.48 964.717C1901.65 964.868 1901.8 965.067 1901.93 965.314C1902.05 965.561 1902.12 965.872 1902.12 966.247ZM1900.85 965.817C1900.85 965.49 1900.76 965.212 1900.59 964.982C1900.41 964.751 1900.16 964.577 1899.84 964.457C1899.52 964.338 1899.15 964.278 1898.73 964.278C1898.3 964.278 1897.94 964.338 1897.62 964.457C1897.31 964.574 1897.07 964.747 1896.89 964.977C1896.72 965.205 1896.63 965.484 1896.63 965.817C1896.63 966.161 1896.72 966.447 1896.9 966.678C1897.08 966.908 1897.33 967.081 1897.64 967.197C1897.96 967.314 1898.32 967.372 1898.73 967.372C1899.14 967.372 1899.5 967.314 1899.82 967.197C1900.14 967.078 1900.39 966.903 1900.58 966.673C1900.76 966.44 1900.85 966.155 1900.85 965.817ZM1902.13 959.234C1902.13 959.649 1902.06 960.022 1901.91 960.355C1901.76 960.684 1901.54 960.946 1901.25 961.139C1900.95 961.329 1900.59 961.424 1900.16 961.424C1899.79 961.424 1899.49 961.356 1899.25 961.22C1899.01 961.083 1898.81 960.897 1898.67 960.662C1898.52 960.426 1898.41 960.16 1898.34 959.865C1898.26 959.566 1898.21 959.258 1898.17 958.94C1898.13 958.556 1898.1 958.245 1898.07 958.007C1898.03 957.768 1897.98 957.595 1897.91 957.487C1897.84 957.376 1897.73 957.321 1897.59 957.321L1897.56 957.321C1897.24 957.321 1896.99 957.416 1896.81 957.606C1896.64 957.797 1896.55 958.071 1896.55 958.429C1896.55 958.806 1896.63 959.106 1896.8 959.328C1896.96 959.547 1897.16 959.694 1897.38 959.771L1897.18 961.211C1896.78 961.098 1896.45 960.91 1896.18 960.649C1895.91 960.387 1895.71 960.068 1895.57 959.69C1895.44 959.312 1895.37 958.895 1895.37 958.437C1895.37 958.122 1895.41 957.808 1895.48 957.495C1895.55 957.183 1895.68 956.897 1895.85 956.639C1896.01 956.38 1896.24 956.173 1896.53 956.017C1896.82 955.858 1897.18 955.778 1897.62 955.778L1902 955.778L1902 957.261L1901.1 957.261L1901.1 957.312C1901.28 957.406 1901.45 957.538 1901.61 957.708C1901.77 957.876 1901.89 958.088 1901.99 958.343C1902.09 958.596 1902.13 958.893 1902.13 959.234ZM1901 958.833C1901 958.524 1900.94 958.255 1900.82 958.028C1900.69 957.801 1900.53 957.626 1900.32 957.504C1900.12 957.379 1899.89 957.316 1899.65 957.316L1898.88 957.316C1898.92 957.365 1898.96 957.447 1898.99 957.564C1899.03 957.677 1899.06 957.805 1899.08 957.947C1899.11 958.089 1899.13 958.23 1899.15 958.369C1899.17 958.508 1899.19 958.629 1899.2 958.731C1899.23 958.961 1899.28 959.167 1899.35 959.349C1899.42 959.531 1899.52 959.674 1899.65 959.779C1899.78 959.885 1899.94 959.937 1900.14 959.937C1900.42 959.937 1900.64 959.833 1900.78 959.626C1900.93 959.419 1901 959.154 1901 958.833ZM1902 954.227L1895.45 954.227L1895.45 952.731L1896.55 952.731L1896.55 952.663C1896.17 952.544 1895.88 952.339 1895.67 952.049C1895.46 951.757 1895.36 951.423 1895.36 951.048C1895.36 950.963 1895.37 950.868 1895.37 950.762C1895.38 950.654 1895.39 950.565 1895.4 950.494L1896.82 950.494C1896.8 950.559 1896.78 950.663 1896.76 950.805C1896.74 950.944 1896.73 951.079 1896.73 951.21C1896.73 951.491 1896.79 951.744 1896.92 951.968C1897.04 952.19 1897.2 952.365 1897.41 952.493C1897.63 952.62 1897.87 952.684 1898.15 952.684L1902 952.684L1902 954.227ZM1899.95 948.063L1898.08 948.067L1898.08 947.82L1895.45 945.468L1895.45 943.665L1898.68 946.559L1898.68 946.878L1899.95 948.063ZM1902 949.469L1893.27 949.469L1893.27 947.926L1902 947.926L1902 949.469ZM1902 945.361L1899.02 947.492L1897.93 946.452L1902 943.516L1902 945.361Z" fill="white" fill-opacity="0.15"/>
<path d="M1914 1073.18L1914 1076.14L1905.27 1076.14L1905.27 1073.12C1905.27 1072.26 1905.45 1071.51 1905.8 1070.89C1906.14 1070.26 1906.64 1069.78 1907.29 1069.45C1907.94 1069.11 1908.72 1068.95 1909.63 1068.95C1910.54 1068.95 1911.32 1069.12 1911.97 1069.45C1912.62 1069.79 1913.13 1070.27 1913.48 1070.91C1913.83 1071.54 1914 1072.3 1914 1073.18ZM1912.63 1074.56L1912.63 1073.26C1912.63 1072.65 1912.52 1072.14 1912.3 1071.74C1912.08 1071.33 1911.74 1071.03 1911.3 1070.82C1910.85 1070.62 1910.3 1070.51 1909.63 1070.51C1908.96 1070.51 1908.41 1070.62 1907.97 1070.82C1907.52 1071.03 1907.19 1071.33 1906.97 1071.73C1906.75 1072.13 1906.64 1072.62 1906.64 1073.21L1906.64 1074.56L1912.63 1074.56ZM1911.25 1063.34L1907.45 1063.34L1907.45 1061.8L1914 1061.8L1914 1063.29L1912.84 1063.29L1912.84 1063.36C1913.2 1063.51 1913.5 1063.75 1913.74 1064.09C1913.97 1064.43 1914.09 1064.84 1914.09 1065.33C1914.09 1065.76 1913.99 1066.14 1913.8 1066.47C1913.61 1066.79 1913.33 1067.05 1912.96 1067.24C1912.59 1067.42 1912.14 1067.51 1911.62 1067.51L1907.45 1067.51L1907.45 1065.97L1911.38 1065.97C1911.8 1065.97 1912.13 1065.86 1912.37 1065.63C1912.62 1065.4 1912.74 1065.1 1912.74 1064.73C1912.74 1064.51 1912.68 1064.29 1912.57 1064.07C1912.46 1063.86 1912.3 1063.69 1912.08 1063.55C1911.86 1063.41 1911.58 1063.34 1911.25 1063.34ZM1914.13 1057.36C1914.13 1058.01 1913.98 1058.57 1913.7 1059.04C1913.41 1059.51 1913.01 1059.86 1912.51 1060.12C1912 1060.37 1911.41 1060.49 1910.75 1060.49C1910.09 1060.49 1909.5 1060.36 1908.99 1060.11C1908.48 1059.85 1908.08 1059.49 1907.8 1059.03C1907.51 1058.56 1907.37 1058 1907.37 1057.36C1907.37 1056.83 1907.47 1056.36 1907.66 1055.95C1907.86 1055.54 1908.13 1055.21 1908.49 1054.97C1908.84 1054.73 1909.25 1054.59 1909.72 1054.55L1909.72 1056.03C1909.41 1056.09 1909.14 1056.23 1908.93 1056.45C1908.72 1056.67 1908.61 1056.97 1908.61 1057.34C1908.61 1057.66 1908.7 1057.94 1908.87 1058.17C1909.04 1058.41 1909.28 1058.6 1909.59 1058.73C1909.91 1058.86 1910.29 1058.93 1910.73 1058.93C1911.17 1058.93 1911.56 1058.86 1911.88 1058.73C1912.2 1058.6 1912.44 1058.42 1912.62 1058.18C1912.79 1057.94 1912.87 1057.66 1912.87 1057.34C1912.87 1057.12 1912.83 1056.91 1912.74 1056.73C1912.65 1056.55 1912.53 1056.4 1912.36 1056.28C1912.2 1056.16 1912 1056.07 1911.76 1056.03L1911.76 1054.55C1912.23 1054.59 1912.64 1054.73 1912.99 1054.96C1913.35 1055.2 1913.63 1055.52 1913.83 1055.92C1914.03 1056.33 1914.13 1056.81 1914.13 1057.36ZM1910.16 1051.74L1914 1051.74L1914 1053.29L1905.27 1053.29L1905.27 1051.78L1908.57 1051.78L1908.57 1051.7C1908.2 1051.55 1907.91 1051.31 1907.69 1050.99C1907.48 1050.66 1907.37 1050.25 1907.37 1049.75C1907.37 1049.3 1907.46 1048.9 1907.65 1048.56C1907.85 1048.23 1908.12 1047.96 1908.49 1047.78C1908.86 1047.59 1909.3 1047.5 1909.83 1047.5L1914 1047.5L1914 1049.04L1910.07 1049.04C1909.63 1049.04 1909.29 1049.15 1909.04 1049.38C1908.8 1049.61 1908.67 1049.92 1908.67 1050.33C1908.67 1050.6 1908.73 1050.85 1908.85 1051.06C1908.97 1051.27 1909.14 1051.44 1909.36 1051.56C1909.58 1051.68 1909.85 1051.74 1910.16 1051.74ZM1914.12 1042.81C1914.12 1043.42 1914.01 1043.97 1913.8 1044.45C1913.59 1044.92 1913.3 1045.3 1912.93 1045.57C1912.55 1045.85 1912.12 1045.99 1911.63 1046.01L1911.63 1044.41C1911.86 1044.39 1912.07 1044.32 1912.24 1044.17C1912.42 1044.03 1912.55 1043.84 1912.65 1043.61C1912.75 1043.37 1912.79 1043.11 1912.79 1042.82C1912.79 1042.5 1912.74 1042.23 1912.63 1041.98C1912.52 1041.74 1912.37 1041.55 1912.17 1041.42C1911.98 1041.28 1911.75 1041.21 1911.49 1041.22C1911.23 1041.21 1911 1041.28 1910.8 1041.42C1910.59 1041.56 1910.44 1041.76 1910.32 1042.03C1910.21 1042.29 1910.15 1042.6 1910.15 1042.97L1910.15 1043.74L1908.93 1043.74L1908.93 1042.97C1908.93 1042.67 1908.88 1042.4 1908.78 1042.18C1908.67 1041.95 1908.52 1041.77 1908.33 1041.63C1908.14 1041.5 1907.92 1041.44 1907.66 1041.44C1907.42 1041.44 1907.2 1041.5 1907.02 1041.61C1906.84 1041.72 1906.69 1041.88 1906.59 1042.08C1906.49 1042.28 1906.44 1042.52 1906.44 1042.79C1906.44 1043.06 1906.48 1043.31 1906.58 1043.54C1906.68 1043.76 1906.82 1043.95 1906.99 1044.09C1907.17 1044.22 1907.38 1044.3 1907.62 1044.31L1907.62 1045.83C1907.14 1045.82 1906.71 1045.68 1906.34 1045.41C1905.97 1045.13 1905.68 1044.77 1905.47 1044.32C1905.26 1043.86 1905.15 1043.35 1905.15 1042.79C1905.15 1042.2 1905.26 1041.7 1905.48 1041.27C1905.7 1040.84 1905.99 1040.5 1906.36 1040.27C1906.72 1040.03 1907.13 1039.91 1907.57 1039.91C1908.06 1039.91 1908.47 1040.06 1908.81 1040.35C1909.14 1040.64 1909.36 1041.02 1909.46 1041.49L1909.53 1041.49C1909.61 1040.88 1909.84 1040.41 1910.21 1040.08C1910.57 1039.75 1911.03 1039.59 1911.58 1039.59C1912.06 1039.59 1912.5 1039.73 1912.89 1040.01C1913.27 1040.28 1913.57 1040.66 1913.79 1041.15C1914.01 1041.63 1914.12 1042.19 1914.12 1042.81ZM1914 1038.13L1912.86 1038.13L1909.89 1035.1C1909.6 1034.81 1909.34 1034.57 1909.11 1034.37C1908.88 1034.18 1908.66 1034.03 1908.45 1033.94C1908.23 1033.84 1908.01 1033.79 1907.77 1033.79C1907.49 1033.79 1907.25 1033.86 1907.06 1033.98C1906.86 1034.11 1906.71 1034.28 1906.6 1034.5C1906.49 1034.71 1906.44 1034.96 1906.44 1035.24C1906.44 1035.53 1906.5 1035.78 1906.62 1036C1906.73 1036.21 1906.9 1036.38 1907.11 1036.5C1907.33 1036.62 1907.59 1036.67 1907.88 1036.67L1907.88 1038.18C1907.33 1038.18 1906.85 1038.05 1906.44 1037.8C1906.03 1037.55 1905.71 1037.2 1905.49 1036.75C1905.27 1036.31 1905.15 1035.8 1905.15 1035.22C1905.15 1034.64 1905.26 1034.12 1905.48 1033.68C1905.7 1033.23 1906 1032.89 1906.38 1032.65C1906.76 1032.4 1907.2 1032.28 1907.68 1032.28C1908.01 1032.28 1908.33 1032.34 1908.65 1032.46C1908.96 1032.59 1909.31 1032.81 1909.7 1033.12C1910.08 1033.44 1910.54 1033.88 1911.09 1034.44L1912.62 1035.94L1912.68 1035.94L1912.68 1032.14L1914 1032.14L1914 1038.13ZM1914.17 1027.45C1914.17 1028.15 1913.99 1028.75 1913.63 1029.25C1913.28 1029.75 1912.76 1030.14 1912.09 1030.41C1911.41 1030.68 1910.6 1030.81 1909.64 1030.81C1908.69 1030.81 1907.88 1030.67 1907.22 1030.41C1906.55 1030.14 1906.03 1029.75 1905.68 1029.25C1905.33 1028.75 1905.15 1028.15 1905.15 1027.45C1905.15 1026.75 1905.33 1026.15 1905.68 1025.65C1906.03 1025.14 1906.55 1024.76 1907.22 1024.49C1907.89 1024.22 1908.7 1024.09 1909.64 1024.09C1910.6 1024.09 1911.41 1024.22 1912.09 1024.49C1912.76 1024.76 1913.28 1025.14 1913.63 1025.65C1913.99 1026.15 1914.17 1026.75 1914.17 1027.45ZM1912.83 1027.45C1912.83 1026.9 1912.56 1026.47 1912.03 1026.16C1911.49 1025.84 1910.69 1025.68 1909.64 1025.68C1908.95 1025.68 1908.37 1025.75 1907.9 1025.9C1907.43 1026.04 1907.07 1026.25 1906.83 1026.51C1906.59 1026.77 1906.47 1027.09 1906.47 1027.45C1906.47 1027.99 1906.74 1028.42 1907.28 1028.73C1907.82 1029.05 1908.61 1029.21 1909.64 1029.21C1910.34 1029.21 1910.93 1029.15 1911.4 1029C1911.87 1028.86 1912.23 1028.65 1912.47 1028.39C1912.71 1028.13 1912.83 1027.81 1912.83 1027.45ZM1905.27 1019.12L1914 1019.12L1914 1020.7L1906.81 1020.7L1906.81 1020.75L1908.12 1022.79L1906.67 1022.79L1905.27 1020.62L1905.27 1019.12Z" fill="white" fill-opacity="0.15"/>
</g>
<defs>
<clipPath id="clip0_104_579">
<rect width="1920" height="1080" fill="white"/>
</clipPath>
</defs>
</svg>
